<mxfile host="Electron" agent="Mozilla/5.0 (Windows NT 10.0; Win64; x64) AppleWebKit/537.36 (KHTML, like Gecko) draw.io/26.0.16 Chrome/132.0.6834.196 Electron/34.2.0 Safari/537.36" version="26.0.16" pages="4">
  <diagram name="Notifications" id="YHajpCu81Nbju0kvB8xl">
    <mxGraphModel dx="724" dy="428" grid="1" gridSize="10" guides="1" tooltips="1" connect="1" arrows="1" fold="1" page="1" pageScale="1" pageWidth="850" pageHeight="1100" math="0" shadow="0">
      <root>
        <mxCell id="0" />
        <mxCell id="1" parent="0" />
        <mxCell id="TwC9vq39RKVhOEFL0OI5-55" value="Uses" style="edgeStyle=orthogonalEdgeStyle;shape=connector;rounded=0;orthogonalLoop=1;jettySize=auto;html=1;strokeColor=default;strokeWidth=1;align=center;verticalAlign=middle;fontFamily=Helvetica;fontSize=11;fontColor=default;labelBackgroundColor=default;startSize=12;endArrow=none;endFill=0;endSize=12;dashed=1;startFill=0;" parent="1" source="TwC9vq39RKVhOEFL0OI5-54" target="TwC9vq39RKVhOEFL0OI5-53" edge="1">
          <mxGeometry relative="1" as="geometry" />
        </mxCell>
        <mxCell id="TwC9vq39RKVhOEFL0OI5-54" value="Notifications" style="shape=folder;fontStyle=1;spacingTop=10;tabWidth=40;tabHeight=14;tabPosition=left;html=1;whiteSpace=wrap;fontFamily=Helvetica;fontSize=11;fontColor=default;labelBackgroundColor=default;verticalAlign=top;" parent="1" vertex="1">
          <mxGeometry x="140" y="150" width="650" height="980" as="geometry" />
        </mxCell>
        <mxCell id="TwC9vq39RKVhOEFL0OI5-1" value="SmsLibrary" style="swimlane;fontStyle=0;childLayout=stackLayout;horizontal=1;startSize=26;fillColor=none;horizontalStack=0;resizeParent=1;resizeParentMax=0;resizeLast=0;collapsible=1;marginBottom=0;whiteSpace=wrap;html=1;" parent="1" vertex="1">
          <mxGeometry x="180" y="210" width="300" height="52" as="geometry" />
        </mxCell>
        <mxCell id="cvG4CC1aJstGFUDQ-PSY-5" value="+ Send(phoneNumber: string, message: String): void" style="text;strokeColor=none;fillColor=none;align=left;verticalAlign=top;spacingLeft=4;spacingRight=4;overflow=hidden;rotatable=0;points=[[0,0.5],[1,0.5]];portConstraint=eastwest;whiteSpace=wrap;html=1;" vertex="1" parent="TwC9vq39RKVhOEFL0OI5-1">
          <mxGeometry y="26" width="300" height="26" as="geometry" />
        </mxCell>
        <mxCell id="TwC9vq39RKVhOEFL0OI5-5" value="EmailLibrary" style="swimlane;fontStyle=0;childLayout=stackLayout;horizontal=1;startSize=26;fillColor=none;horizontalStack=0;resizeParent=1;resizeParentMax=0;resizeLast=0;collapsible=1;marginBottom=0;whiteSpace=wrap;html=1;" parent="1" vertex="1">
          <mxGeometry x="485" y="210" width="290" height="52" as="geometry" />
        </mxCell>
        <mxCell id="cvG4CC1aJstGFUDQ-PSY-6" value="+ Send(emailAddress: string, message: String): void" style="text;strokeColor=none;fillColor=none;align=left;verticalAlign=top;spacingLeft=4;spacingRight=4;overflow=hidden;rotatable=0;points=[[0,0.5],[1,0.5]];portConstraint=eastwest;whiteSpace=wrap;html=1;" vertex="1" parent="TwC9vq39RKVhOEFL0OI5-5">
          <mxGeometry y="26" width="290" height="26" as="geometry" />
        </mxCell>
        <mxCell id="TwC9vq39RKVhOEFL0OI5-37" style="edgeStyle=orthogonalEdgeStyle;rounded=0;orthogonalLoop=1;jettySize=auto;html=1;endArrow=open;endFill=0;strokeWidth=1;startSize=12;endSize=12;" parent="1" source="TwC9vq39RKVhOEFL0OI5-9" target="TwC9vq39RKVhOEFL0OI5-1" edge="1">
          <mxGeometry relative="1" as="geometry" />
        </mxCell>
        <mxCell id="TwC9vq39RKVhOEFL0OI5-9" value="SmsSendNotificationAdaptor" style="swimlane;fontStyle=0;childLayout=stackLayout;horizontal=1;startSize=26;fillColor=none;horizontalStack=0;resizeParent=1;resizeParentMax=0;resizeLast=0;collapsible=1;marginBottom=0;whiteSpace=wrap;html=1;" parent="1" vertex="1">
          <mxGeometry x="180" y="360" width="300" height="52" as="geometry" />
        </mxCell>
        <mxCell id="cvG4CC1aJstGFUDQ-PSY-2" value="+ Send(phoneNumber: string, message: String): void" style="text;strokeColor=none;fillColor=none;align=left;verticalAlign=top;spacingLeft=4;spacingRight=4;overflow=hidden;rotatable=0;points=[[0,0.5],[1,0.5]];portConstraint=eastwest;whiteSpace=wrap;html=1;" vertex="1" parent="TwC9vq39RKVhOEFL0OI5-9">
          <mxGeometry y="26" width="300" height="26" as="geometry" />
        </mxCell>
        <mxCell id="TwC9vq39RKVhOEFL0OI5-46" style="edgeStyle=orthogonalEdgeStyle;shape=connector;rounded=0;orthogonalLoop=1;jettySize=auto;html=1;strokeColor=default;strokeWidth=1;align=center;verticalAlign=middle;fontFamily=Helvetica;fontSize=11;fontColor=default;labelBackgroundColor=default;startSize=12;endArrow=open;endFill=0;endSize=12;" parent="1" source="TwC9vq39RKVhOEFL0OI5-13" target="TwC9vq39RKVhOEFL0OI5-5" edge="1">
          <mxGeometry relative="1" as="geometry" />
        </mxCell>
        <mxCell id="TwC9vq39RKVhOEFL0OI5-13" value="EmailSendNotificationAdaptor" style="swimlane;fontStyle=0;childLayout=stackLayout;horizontal=1;startSize=26;fillColor=none;horizontalStack=0;resizeParent=1;resizeParentMax=0;resizeLast=0;collapsible=1;marginBottom=0;whiteSpace=wrap;html=1;" parent="1" vertex="1">
          <mxGeometry x="485" y="360" width="290" height="52" as="geometry" />
        </mxCell>
        <mxCell id="cvG4CC1aJstGFUDQ-PSY-1" value="+ Send(emailAddress: string, message: String): void" style="text;strokeColor=none;fillColor=none;align=left;verticalAlign=top;spacingLeft=4;spacingRight=4;overflow=hidden;rotatable=0;points=[[0,0.5],[1,0.5]];portConstraint=eastwest;whiteSpace=wrap;html=1;" vertex="1" parent="TwC9vq39RKVhOEFL0OI5-13">
          <mxGeometry y="26" width="290" height="26" as="geometry" />
        </mxCell>
        <mxCell id="TwC9vq39RKVhOEFL0OI5-48" style="edgeStyle=orthogonalEdgeStyle;shape=connector;rounded=0;orthogonalLoop=1;jettySize=auto;html=1;strokeColor=default;strokeWidth=1;align=center;verticalAlign=middle;fontFamily=Helvetica;fontSize=11;fontColor=default;labelBackgroundColor=default;startSize=12;endArrow=open;endFill=0;endSize=12;" parent="1" source="TwC9vq39RKVhOEFL0OI5-17" target="TwC9vq39RKVhOEFL0OI5-9" edge="1">
          <mxGeometry relative="1" as="geometry" />
        </mxCell>
        <mxCell id="TwC9vq39RKVhOEFL0OI5-17" value="SmsSendNotificationStrategy" style="swimlane;fontStyle=0;childLayout=stackLayout;horizontal=1;startSize=26;fillColor=none;horizontalStack=0;resizeParent=1;resizeParentMax=0;resizeLast=0;collapsible=1;marginBottom=0;whiteSpace=wrap;html=1;" parent="1" vertex="1">
          <mxGeometry x="235" y="510" width="190" height="52" as="geometry" />
        </mxCell>
        <mxCell id="TwC9vq39RKVhOEFL0OI5-47" style="edgeStyle=orthogonalEdgeStyle;shape=connector;rounded=0;orthogonalLoop=1;jettySize=auto;html=1;strokeColor=default;strokeWidth=1;align=center;verticalAlign=middle;fontFamily=Helvetica;fontSize=11;fontColor=default;labelBackgroundColor=default;startSize=12;endArrow=open;endFill=0;endSize=12;" parent="1" source="TwC9vq39RKVhOEFL0OI5-21" target="TwC9vq39RKVhOEFL0OI5-13" edge="1">
          <mxGeometry relative="1" as="geometry" />
        </mxCell>
        <mxCell id="TwC9vq39RKVhOEFL0OI5-21" value="EmailSendNotificationStrategy" style="swimlane;fontStyle=0;childLayout=stackLayout;horizontal=1;startSize=26;fillColor=none;horizontalStack=0;resizeParent=1;resizeParentMax=0;resizeLast=0;collapsible=1;marginBottom=0;whiteSpace=wrap;html=1;" parent="1" vertex="1">
          <mxGeometry x="535" y="510" width="190" height="52" as="geometry" />
        </mxCell>
        <mxCell id="TwC9vq39RKVhOEFL0OI5-49" style="edgeStyle=orthogonalEdgeStyle;shape=connector;rounded=0;orthogonalLoop=1;jettySize=auto;html=1;strokeColor=default;strokeWidth=1;align=center;verticalAlign=middle;fontFamily=Helvetica;fontSize=11;fontColor=default;labelBackgroundColor=default;startSize=12;endArrow=none;endFill=0;endSize=12;startFill=0;startArrow=block;" parent="1" source="TwC9vq39RKVhOEFL0OI5-25" target="TwC9vq39RKVhOEFL0OI5-21" edge="1">
          <mxGeometry relative="1" as="geometry">
            <Array as="points">
              <mxPoint x="465" y="620" />
              <mxPoint x="630" y="620" />
            </Array>
          </mxGeometry>
        </mxCell>
        <mxCell id="TwC9vq39RKVhOEFL0OI5-50" style="edgeStyle=orthogonalEdgeStyle;shape=connector;rounded=0;orthogonalLoop=1;jettySize=auto;html=1;strokeColor=default;strokeWidth=1;align=center;verticalAlign=middle;fontFamily=Helvetica;fontSize=11;fontColor=default;labelBackgroundColor=default;startSize=12;endArrow=none;endFill=0;endSize=12;startArrow=block;startFill=0;" parent="1" source="TwC9vq39RKVhOEFL0OI5-25" target="TwC9vq39RKVhOEFL0OI5-17" edge="1">
          <mxGeometry relative="1" as="geometry">
            <Array as="points">
              <mxPoint x="465" y="620" />
              <mxPoint x="330" y="620" />
            </Array>
          </mxGeometry>
        </mxCell>
        <mxCell id="TwC9vq39RKVhOEFL0OI5-25" value="ISendNotificationStrategy" style="swimlane;fontStyle=0;childLayout=stackLayout;horizontal=1;startSize=26;fillColor=none;horizontalStack=0;resizeParent=1;resizeParentMax=0;resizeLast=0;collapsible=1;marginBottom=0;whiteSpace=wrap;html=1;" parent="1" vertex="1">
          <mxGeometry x="340" y="680" width="250" height="52" as="geometry" />
        </mxCell>
        <mxCell id="TwC9vq39RKVhOEFL0OI5-26" value="+ Send(user: User, message: String): void" style="text;strokeColor=none;fillColor=none;align=left;verticalAlign=top;spacingLeft=4;spacingRight=4;overflow=hidden;rotatable=0;points=[[0,0.5],[1,0.5]];portConstraint=eastwest;whiteSpace=wrap;html=1;" parent="TwC9vq39RKVhOEFL0OI5-25" vertex="1">
          <mxGeometry y="26" width="250" height="26" as="geometry" />
        </mxCell>
        <mxCell id="TwC9vq39RKVhOEFL0OI5-51" style="edgeStyle=orthogonalEdgeStyle;shape=connector;rounded=0;orthogonalLoop=1;jettySize=auto;html=1;strokeColor=default;strokeWidth=1;align=center;verticalAlign=middle;fontFamily=Helvetica;fontSize=11;fontColor=default;labelBackgroundColor=default;startSize=12;endArrow=open;endFill=0;endSize=12;dashed=1;" parent="1" source="TwC9vq39RKVhOEFL0OI5-29" target="TwC9vq39RKVhOEFL0OI5-25" edge="1">
          <mxGeometry relative="1" as="geometry" />
        </mxCell>
        <mxCell id="TwC9vq39RKVhOEFL0OI5-29" value="NotificationService" style="swimlane;fontStyle=0;childLayout=stackLayout;horizontal=1;startSize=26;fillColor=none;horizontalStack=0;resizeParent=1;resizeParentMax=0;resizeLast=0;collapsible=1;marginBottom=0;whiteSpace=wrap;html=1;" parent="1" vertex="1">
          <mxGeometry x="365" y="830" width="200" height="52" as="geometry" />
        </mxCell>
        <mxCell id="TwC9vq39RKVhOEFL0OI5-30" value="- strategy: ISendNotificationStategy" style="text;strokeColor=none;fillColor=none;align=left;verticalAlign=top;spacingLeft=4;spacingRight=4;overflow=hidden;rotatable=0;points=[[0,0.5],[1,0.5]];portConstraint=eastwest;whiteSpace=wrap;html=1;" parent="TwC9vq39RKVhOEFL0OI5-29" vertex="1">
          <mxGeometry y="26" width="200" height="26" as="geometry" />
        </mxCell>
        <mxCell id="TwC9vq39RKVhOEFL0OI5-52" style="edgeStyle=orthogonalEdgeStyle;shape=connector;rounded=0;orthogonalLoop=1;jettySize=auto;html=1;strokeColor=default;strokeWidth=1;align=center;verticalAlign=middle;fontFamily=Helvetica;fontSize=11;fontColor=default;labelBackgroundColor=default;startSize=12;endArrow=none;endFill=0;endSize=12;startArrow=block;startFill=0;" parent="1" source="TwC9vq39RKVhOEFL0OI5-33" target="TwC9vq39RKVhOEFL0OI5-29" edge="1">
          <mxGeometry relative="1" as="geometry" />
        </mxCell>
        <mxCell id="TwC9vq39RKVhOEFL0OI5-33" value="INotificationService" style="swimlane;fontStyle=0;childLayout=stackLayout;horizontal=1;startSize=26;fillColor=none;horizontalStack=0;resizeParent=1;resizeParentMax=0;resizeLast=0;collapsible=1;marginBottom=0;whiteSpace=wrap;html=1;" parent="1" vertex="1">
          <mxGeometry x="310" y="980" width="310" height="78" as="geometry" />
        </mxCell>
        <mxCell id="n7ydRPRzHnPp3bV-fV2E-1" value="+ SetStrategy(users: List&amp;lt;User&amp;gt;, message: string): void" style="text;strokeColor=none;fillColor=none;align=left;verticalAlign=top;spacingLeft=4;spacingRight=4;overflow=hidden;rotatable=0;points=[[0,0.5],[1,0.5]];portConstraint=eastwest;whiteSpace=wrap;html=1;" parent="TwC9vq39RKVhOEFL0OI5-33" vertex="1">
          <mxGeometry y="26" width="310" height="26" as="geometry" />
        </mxCell>
        <mxCell id="TwC9vq39RKVhOEFL0OI5-35" value="+ Send(users: List&amp;lt;User&amp;gt;, message: string): void" style="text;strokeColor=none;fillColor=none;align=left;verticalAlign=top;spacingLeft=4;spacingRight=4;overflow=hidden;rotatable=0;points=[[0,0.5],[1,0.5]];portConstraint=eastwest;whiteSpace=wrap;html=1;" parent="TwC9vq39RKVhOEFL0OI5-33" vertex="1">
          <mxGeometry y="52" width="310" height="26" as="geometry" />
        </mxCell>
        <mxCell id="TwC9vq39RKVhOEFL0OI5-53" value="ProjectManagementSystem" style="shape=folder;fontStyle=1;spacingTop=10;tabWidth=40;tabHeight=14;tabPosition=left;html=1;whiteSpace=wrap;fontFamily=Helvetica;fontSize=11;fontColor=default;labelBackgroundColor=default;" parent="1" vertex="1">
          <mxGeometry x="910" y="615" width="160" height="50" as="geometry" />
        </mxCell>
      </root>
    </mxGraphModel>
  </diagram>
  <diagram id="f_OKBNlPJ251px4nfyG9" name="VersionControl">
    <mxGraphModel dx="724" dy="428" grid="1" gridSize="10" guides="1" tooltips="1" connect="1" arrows="1" fold="1" page="1" pageScale="1" pageWidth="850" pageHeight="1100" math="0" shadow="0">
      <root>
        <mxCell id="0" />
        <mxCell id="1" parent="0" />
        <mxCell id="XqCs6jha_28srarafWPw-1" value="VersionControl" style="shape=folder;fontStyle=1;spacingTop=10;tabWidth=40;tabHeight=14;tabPosition=left;html=1;whiteSpace=wrap;fontFamily=Helvetica;fontSize=11;fontColor=default;labelBackgroundColor=default;verticalAlign=top;" parent="1" vertex="1">
          <mxGeometry x="190" y="200" width="830" height="470" as="geometry" />
        </mxCell>
        <mxCell id="XqCs6jha_28srarafWPw-38" style="edgeStyle=orthogonalEdgeStyle;shape=connector;rounded=0;orthogonalLoop=1;jettySize=auto;html=1;strokeColor=default;strokeWidth=1;align=center;verticalAlign=middle;fontFamily=Helvetica;fontSize=11;fontColor=default;labelBackgroundColor=default;startSize=12;endArrow=open;endFill=0;endSize=12;" parent="1" source="XqCs6jha_28srarafWPw-2" target="XqCs6jha_28srarafWPw-43" edge="1">
          <mxGeometry relative="1" as="geometry">
            <Array as="points">
              <mxPoint x="600" y="410" />
              <mxPoint x="315" y="410" />
            </Array>
          </mxGeometry>
        </mxCell>
        <mxCell id="XqCs6jha_28srarafWPw-39" style="edgeStyle=orthogonalEdgeStyle;shape=connector;rounded=0;orthogonalLoop=1;jettySize=auto;html=1;strokeColor=default;strokeWidth=1;align=center;verticalAlign=middle;fontFamily=Helvetica;fontSize=11;fontColor=default;labelBackgroundColor=default;startSize=12;endArrow=open;endFill=0;endSize=12;" parent="1" source="XqCs6jha_28srarafWPw-2" target="XqCs6jha_28srarafWPw-18" edge="1">
          <mxGeometry relative="1" as="geometry">
            <Array as="points">
              <mxPoint x="600" y="410" />
              <mxPoint x="510" y="410" />
            </Array>
          </mxGeometry>
        </mxCell>
        <mxCell id="XqCs6jha_28srarafWPw-40" style="edgeStyle=orthogonalEdgeStyle;shape=connector;rounded=0;orthogonalLoop=1;jettySize=auto;html=1;strokeColor=default;strokeWidth=1;align=center;verticalAlign=middle;fontFamily=Helvetica;fontSize=11;fontColor=default;labelBackgroundColor=default;startSize=12;endArrow=open;endFill=0;endSize=12;" parent="1" source="XqCs6jha_28srarafWPw-2" target="XqCs6jha_28srarafWPw-22" edge="1">
          <mxGeometry relative="1" as="geometry">
            <Array as="points">
              <mxPoint x="600" y="410" />
              <mxPoint x="705" y="410" />
            </Array>
          </mxGeometry>
        </mxCell>
        <mxCell id="XqCs6jha_28srarafWPw-41" style="edgeStyle=orthogonalEdgeStyle;shape=connector;rounded=0;orthogonalLoop=1;jettySize=auto;html=1;strokeColor=default;strokeWidth=1;align=center;verticalAlign=middle;fontFamily=Helvetica;fontSize=11;fontColor=default;labelBackgroundColor=default;startSize=12;endArrow=open;endFill=0;endSize=12;" parent="1" source="XqCs6jha_28srarafWPw-2" target="XqCs6jha_28srarafWPw-26" edge="1">
          <mxGeometry relative="1" as="geometry">
            <Array as="points">
              <mxPoint x="600" y="410" />
              <mxPoint x="900" y="410" />
            </Array>
          </mxGeometry>
        </mxCell>
        <mxCell id="XqCs6jha_28srarafWPw-2" value="GitVersionControl" style="swimlane;fontStyle=0;childLayout=stackLayout;horizontal=1;startSize=26;fillColor=none;horizontalStack=0;resizeParent=1;resizeParentMax=0;resizeLast=0;collapsible=1;marginBottom=0;whiteSpace=wrap;html=1;fontFamily=Helvetica;fontSize=11;fontColor=default;labelBackgroundColor=default;" parent="1" vertex="1">
          <mxGeometry x="535" y="286" width="140" height="52" as="geometry" />
        </mxCell>
        <mxCell id="XqCs6jha_28srarafWPw-37" style="edgeStyle=orthogonalEdgeStyle;shape=connector;rounded=0;orthogonalLoop=1;jettySize=auto;html=1;strokeColor=default;strokeWidth=1;align=center;verticalAlign=middle;fontFamily=Helvetica;fontSize=11;fontColor=default;labelBackgroundColor=default;startSize=12;endArrow=none;endFill=0;endSize=12;startArrow=block;startFill=0;dashed=1;" parent="1" source="XqCs6jha_28srarafWPw-6" target="XqCs6jha_28srarafWPw-2" edge="1">
          <mxGeometry relative="1" as="geometry" />
        </mxCell>
        <mxCell id="XqCs6jha_28srarafWPw-6" value="IGitVersionControl" style="swimlane;fontStyle=0;childLayout=stackLayout;horizontal=1;startSize=26;fillColor=none;horizontalStack=0;resizeParent=1;resizeParentMax=0;resizeLast=0;collapsible=1;marginBottom=0;whiteSpace=wrap;html=1;fontFamily=Helvetica;fontSize=11;fontColor=default;labelBackgroundColor=default;" parent="1" vertex="1">
          <mxGeometry x="785" y="247" width="190" height="130" as="geometry" />
        </mxCell>
        <mxCell id="XqCs6jha_28srarafWPw-8" value="+ Branch(branchName: string): void" style="text;strokeColor=none;fillColor=none;align=left;verticalAlign=top;spacingLeft=4;spacingRight=4;overflow=hidden;rotatable=0;points=[[0,0.5],[1,0.5]];portConstraint=eastwest;whiteSpace=wrap;html=1;fontFamily=Helvetica;fontSize=11;fontColor=default;labelBackgroundColor=default;" parent="XqCs6jha_28srarafWPw-6" vertex="1">
          <mxGeometry y="26" width="190" height="26" as="geometry" />
        </mxCell>
        <mxCell id="XqCs6jha_28srarafWPw-7" value="+ Commit(message: string): void" style="text;strokeColor=none;fillColor=none;align=left;verticalAlign=top;spacingLeft=4;spacingRight=4;overflow=hidden;rotatable=0;points=[[0,0.5],[1,0.5]];portConstraint=eastwest;whiteSpace=wrap;html=1;fontFamily=Helvetica;fontSize=11;fontColor=default;labelBackgroundColor=default;" parent="XqCs6jha_28srarafWPw-6" vertex="1">
          <mxGeometry y="52" width="190" height="26" as="geometry" />
        </mxCell>
        <mxCell id="XqCs6jha_28srarafWPw-9" value="+ Fetch(): void" style="text;strokeColor=none;fillColor=none;align=left;verticalAlign=top;spacingLeft=4;spacingRight=4;overflow=hidden;rotatable=0;points=[[0,0.5],[1,0.5]];portConstraint=eastwest;whiteSpace=wrap;html=1;fontFamily=Helvetica;fontSize=11;fontColor=default;labelBackgroundColor=default;" parent="XqCs6jha_28srarafWPw-6" vertex="1">
          <mxGeometry y="78" width="190" height="26" as="geometry" />
        </mxCell>
        <mxCell id="XqCs6jha_28srarafWPw-36" value="+ Push(): void" style="text;strokeColor=none;fillColor=none;align=left;verticalAlign=top;spacingLeft=4;spacingRight=4;overflow=hidden;rotatable=0;points=[[0,0.5],[1,0.5]];portConstraint=eastwest;whiteSpace=wrap;html=1;fontFamily=Helvetica;fontSize=11;fontColor=default;labelBackgroundColor=default;" parent="XqCs6jha_28srarafWPw-6" vertex="1">
          <mxGeometry y="104" width="190" height="26" as="geometry" />
        </mxCell>
        <mxCell id="XqCs6jha_28srarafWPw-14" value="BranchGitVersionControlAction" style="swimlane;fontStyle=0;childLayout=stackLayout;horizontal=1;startSize=26;fillColor=none;horizontalStack=0;resizeParent=1;resizeParentMax=0;resizeLast=0;collapsible=1;marginBottom=0;whiteSpace=wrap;html=1;fontFamily=Helvetica;fontSize=11;fontColor=default;labelBackgroundColor=default;" parent="1" vertex="1">
          <mxGeometry x="230" y="590" width="170" height="52" as="geometry" />
        </mxCell>
        <mxCell id="XqCs6jha_28srarafWPw-49" style="edgeStyle=orthogonalEdgeStyle;shape=connector;rounded=0;orthogonalLoop=1;jettySize=auto;html=1;entryX=0.5;entryY=0;entryDx=0;entryDy=0;strokeColor=default;strokeWidth=1;align=center;verticalAlign=middle;fontFamily=Helvetica;fontSize=11;fontColor=default;labelBackgroundColor=default;startSize=12;endArrow=none;endFill=0;endSize=12;startArrow=block;startFill=0;dashed=1;" parent="1" source="XqCs6jha_28srarafWPw-18" target="XqCs6jha_28srarafWPw-46" edge="1">
          <mxGeometry relative="1" as="geometry" />
        </mxCell>
        <mxCell id="XqCs6jha_28srarafWPw-18" value="&lt;div&gt;&amp;lt;&amp;lt;interface&amp;gt;&amp;gt;&lt;/div&gt;ICommitGitVersionControlAction" style="swimlane;fontStyle=0;childLayout=stackLayout;horizontal=1;startSize=46;fillColor=none;horizontalStack=0;resizeParent=1;resizeParentMax=0;resizeLast=0;collapsible=1;marginBottom=0;whiteSpace=wrap;html=1;fontFamily=Helvetica;fontSize=11;fontColor=default;labelBackgroundColor=default;" parent="1" vertex="1">
          <mxGeometry x="425" y="454" width="170" height="72" as="geometry" />
        </mxCell>
        <mxCell id="XqCs6jha_28srarafWPw-52" value="+ Commit(message: string): void" style="text;strokeColor=none;fillColor=none;align=left;verticalAlign=top;spacingLeft=4;spacingRight=4;overflow=hidden;rotatable=0;points=[[0,0.5],[1,0.5]];portConstraint=eastwest;whiteSpace=wrap;html=1;fontFamily=Helvetica;fontSize=11;fontColor=default;labelBackgroundColor=default;" parent="XqCs6jha_28srarafWPw-18" vertex="1">
          <mxGeometry y="46" width="170" height="26" as="geometry" />
        </mxCell>
        <mxCell id="XqCs6jha_28srarafWPw-50" style="edgeStyle=orthogonalEdgeStyle;shape=connector;rounded=0;orthogonalLoop=1;jettySize=auto;html=1;strokeColor=default;strokeWidth=1;align=center;verticalAlign=middle;fontFamily=Helvetica;fontSize=11;fontColor=default;labelBackgroundColor=default;startSize=12;endArrow=none;endFill=0;endSize=12;startArrow=block;startFill=0;dashed=1;" parent="1" source="XqCs6jha_28srarafWPw-22" target="XqCs6jha_28srarafWPw-47" edge="1">
          <mxGeometry relative="1" as="geometry" />
        </mxCell>
        <mxCell id="XqCs6jha_28srarafWPw-22" value="&lt;div&gt;&amp;lt;&amp;lt;interface&amp;gt;&amp;gt;&lt;/div&gt;IFetchGitVersionControlAction" style="swimlane;fontStyle=0;childLayout=stackLayout;horizontal=1;startSize=46;fillColor=none;horizontalStack=0;resizeParent=1;resizeParentMax=0;resizeLast=0;collapsible=1;marginBottom=0;whiteSpace=wrap;html=1;fontFamily=Helvetica;fontSize=11;fontColor=default;labelBackgroundColor=default;" parent="1" vertex="1">
          <mxGeometry x="625" y="454" width="160" height="72" as="geometry" />
        </mxCell>
        <mxCell id="XqCs6jha_28srarafWPw-53" value="+ Fetch(): void" style="text;strokeColor=none;fillColor=none;align=left;verticalAlign=top;spacingLeft=4;spacingRight=4;overflow=hidden;rotatable=0;points=[[0,0.5],[1,0.5]];portConstraint=eastwest;whiteSpace=wrap;html=1;fontFamily=Helvetica;fontSize=11;fontColor=default;labelBackgroundColor=default;" parent="XqCs6jha_28srarafWPw-22" vertex="1">
          <mxGeometry y="46" width="160" height="26" as="geometry" />
        </mxCell>
        <mxCell id="XqCs6jha_28srarafWPw-51" style="edgeStyle=orthogonalEdgeStyle;shape=connector;rounded=0;orthogonalLoop=1;jettySize=auto;html=1;strokeColor=default;strokeWidth=1;align=center;verticalAlign=middle;fontFamily=Helvetica;fontSize=11;fontColor=default;labelBackgroundColor=default;startSize=12;endArrow=none;endFill=0;endSize=12;startArrow=block;startFill=0;dashed=1;" parent="1" source="XqCs6jha_28srarafWPw-26" target="XqCs6jha_28srarafWPw-48" edge="1">
          <mxGeometry relative="1" as="geometry" />
        </mxCell>
        <mxCell id="XqCs6jha_28srarafWPw-26" value="&lt;div&gt;&amp;lt;&amp;lt;interface&amp;gt;&amp;gt;&lt;/div&gt;IPushGitVersionControlAction" style="swimlane;fontStyle=0;childLayout=stackLayout;horizontal=1;startSize=46;fillColor=none;horizontalStack=0;resizeParent=1;resizeParentMax=0;resizeLast=0;collapsible=1;marginBottom=0;whiteSpace=wrap;html=1;fontFamily=Helvetica;fontSize=11;fontColor=default;labelBackgroundColor=default;" parent="1" vertex="1">
          <mxGeometry x="820" y="454" width="160" height="72" as="geometry" />
        </mxCell>
        <mxCell id="XqCs6jha_28srarafWPw-54" value="+ Push(): void" style="text;strokeColor=none;fillColor=none;align=left;verticalAlign=top;spacingLeft=4;spacingRight=4;overflow=hidden;rotatable=0;points=[[0,0.5],[1,0.5]];portConstraint=eastwest;whiteSpace=wrap;html=1;fontFamily=Helvetica;fontSize=11;fontColor=default;labelBackgroundColor=default;" parent="XqCs6jha_28srarafWPw-26" vertex="1">
          <mxGeometry y="46" width="160" height="26" as="geometry" />
        </mxCell>
        <mxCell id="XqCs6jha_28srarafWPw-45" style="edgeStyle=orthogonalEdgeStyle;shape=connector;rounded=0;orthogonalLoop=1;jettySize=auto;html=1;strokeColor=default;strokeWidth=1;align=center;verticalAlign=middle;fontFamily=Helvetica;fontSize=11;fontColor=default;labelBackgroundColor=default;startSize=12;endArrow=none;endFill=0;endSize=12;startArrow=block;startFill=0;dashed=1;" parent="1" source="XqCs6jha_28srarafWPw-43" target="XqCs6jha_28srarafWPw-14" edge="1">
          <mxGeometry relative="1" as="geometry" />
        </mxCell>
        <mxCell id="XqCs6jha_28srarafWPw-43" value="&lt;div&gt;&amp;lt;&amp;lt;interface&amp;gt;&amp;gt;&lt;/div&gt;IBranchGitVersionControlAction" style="swimlane;fontStyle=0;childLayout=stackLayout;horizontal=1;startSize=46;fillColor=none;horizontalStack=0;resizeParent=1;resizeParentMax=0;resizeLast=0;collapsible=1;marginBottom=0;whiteSpace=wrap;html=1;fontFamily=Helvetica;fontSize=11;fontColor=default;labelBackgroundColor=default;" parent="1" vertex="1">
          <mxGeometry x="220" y="454" width="190" height="72" as="geometry" />
        </mxCell>
        <mxCell id="XqCs6jha_28srarafWPw-44" value="+ Branch(branchName: string): void" style="text;strokeColor=none;fillColor=none;align=left;verticalAlign=top;spacingLeft=4;spacingRight=4;overflow=hidden;rotatable=0;points=[[0,0.5],[1,0.5]];portConstraint=eastwest;whiteSpace=wrap;html=1;fontFamily=Helvetica;fontSize=11;fontColor=default;labelBackgroundColor=default;" parent="XqCs6jha_28srarafWPw-43" vertex="1">
          <mxGeometry y="46" width="190" height="26" as="geometry" />
        </mxCell>
        <mxCell id="XqCs6jha_28srarafWPw-46" value="CommitGitVersionControlAction" style="swimlane;fontStyle=0;childLayout=stackLayout;horizontal=1;startSize=26;fillColor=none;horizontalStack=0;resizeParent=1;resizeParentMax=0;resizeLast=0;collapsible=1;marginBottom=0;whiteSpace=wrap;html=1;fontFamily=Helvetica;fontSize=11;fontColor=default;labelBackgroundColor=default;" parent="1" vertex="1">
          <mxGeometry x="425" y="590" width="170" height="52" as="geometry" />
        </mxCell>
        <mxCell id="XqCs6jha_28srarafWPw-47" value="FetchGitVersionControlAction" style="swimlane;fontStyle=0;childLayout=stackLayout;horizontal=1;startSize=26;fillColor=none;horizontalStack=0;resizeParent=1;resizeParentMax=0;resizeLast=0;collapsible=1;marginBottom=0;whiteSpace=wrap;html=1;fontFamily=Helvetica;fontSize=11;fontColor=default;labelBackgroundColor=default;" parent="1" vertex="1">
          <mxGeometry x="625" y="590" width="160" height="52" as="geometry" />
        </mxCell>
        <mxCell id="XqCs6jha_28srarafWPw-48" value="PushGitVersionControlAction" style="swimlane;fontStyle=0;childLayout=stackLayout;horizontal=1;startSize=26;fillColor=none;horizontalStack=0;resizeParent=1;resizeParentMax=0;resizeLast=0;collapsible=1;marginBottom=0;whiteSpace=wrap;html=1;fontFamily=Helvetica;fontSize=11;fontColor=default;labelBackgroundColor=default;" parent="1" vertex="1">
          <mxGeometry x="820" y="590" width="160" height="52" as="geometry" />
        </mxCell>
      </root>
    </mxGraphModel>
  </diagram>
  <diagram id="sgwrtLv7vi8BRDHB-7KS" name="DevOps">
    <mxGraphModel dx="1416" dy="1596" grid="1" gridSize="10" guides="1" tooltips="1" connect="1" arrows="1" fold="1" page="1" pageScale="1" pageWidth="850" pageHeight="1100" math="0" shadow="0">
      <root>
        <mxCell id="0" />
        <mxCell id="1" parent="0" />
        <mxCell id="wnxSNhhKYnTs5wvNVK_b-153" value="Uses" style="edgeStyle=orthogonalEdgeStyle;shape=connector;rounded=0;orthogonalLoop=1;jettySize=auto;html=1;strokeColor=default;strokeWidth=1;align=center;verticalAlign=middle;fontFamily=Helvetica;fontSize=11;fontColor=default;labelBackgroundColor=default;startSize=12;endArrow=open;endFill=0;endSize=12;dashed=1;" parent="1" source="wnxSNhhKYnTs5wvNVK_b-1" target="wnxSNhhKYnTs5wvNVK_b-152" edge="1">
          <mxGeometry relative="1" as="geometry">
            <Array as="points">
              <mxPoint x="35" y="150" />
              <mxPoint x="35" y="150" />
            </Array>
          </mxGeometry>
        </mxCell>
        <mxCell id="wnxSNhhKYnTs5wvNVK_b-1" value="DevOps" style="shape=folder;fontStyle=1;spacingTop=10;tabWidth=40;tabHeight=14;tabPosition=left;html=1;whiteSpace=wrap;fontFamily=Helvetica;fontSize=11;fontColor=default;labelBackgroundColor=default;verticalAlign=top;" parent="1" vertex="1">
          <mxGeometry x="-50" y="160" width="1760" height="1350" as="geometry" />
        </mxCell>
        <mxCell id="wnxSNhhKYnTs5wvNVK_b-15" style="edgeStyle=orthogonalEdgeStyle;shape=connector;rounded=0;orthogonalLoop=1;jettySize=auto;html=1;strokeColor=default;strokeWidth=1;align=center;verticalAlign=middle;fontFamily=Helvetica;fontSize=11;fontColor=default;labelBackgroundColor=default;startSize=12;endArrow=open;endFill=0;endSize=12;" parent="1" source="wnxSNhhKYnTs5wvNVK_b-2" target="wnxSNhhKYnTs5wvNVK_b-7" edge="1">
          <mxGeometry relative="1" as="geometry" />
        </mxCell>
        <mxCell id="wnxSNhhKYnTs5wvNVK_b-2" value="PipelineDirector" style="swimlane;fontStyle=0;childLayout=stackLayout;horizontal=1;startSize=26;fillColor=none;horizontalStack=0;resizeParent=1;resizeParentMax=0;resizeLast=0;collapsible=1;marginBottom=0;whiteSpace=wrap;html=1;fontFamily=Helvetica;fontSize=11;fontColor=default;labelBackgroundColor=default;" parent="1" vertex="1">
          <mxGeometry x="475" y="200" width="360" height="52" as="geometry" />
        </mxCell>
        <mxCell id="wnxSNhhKYnTs5wvNVK_b-3" value="+&amp;nbsp;&lt;span style=&quot;text-align: center;&quot;&gt;PipelineDirector(builder: IPipelineBuilder, isDeployPipeline: boolean)&lt;/span&gt;" style="text;strokeColor=none;fillColor=none;align=left;verticalAlign=top;spacingLeft=4;spacingRight=4;overflow=hidden;rotatable=0;points=[[0,0.5],[1,0.5]];portConstraint=eastwest;whiteSpace=wrap;html=1;fontFamily=Helvetica;fontSize=11;fontColor=default;labelBackgroundColor=default;" parent="wnxSNhhKYnTs5wvNVK_b-2" vertex="1">
          <mxGeometry y="26" width="360" height="26" as="geometry" />
        </mxCell>
        <mxCell id="wnxSNhhKYnTs5wvNVK_b-16" style="edgeStyle=orthogonalEdgeStyle;shape=connector;rounded=0;orthogonalLoop=1;jettySize=auto;html=1;strokeColor=default;strokeWidth=1;align=center;verticalAlign=middle;fontFamily=Helvetica;fontSize=11;fontColor=default;labelBackgroundColor=default;startSize=12;endArrow=none;endFill=0;endSize=12;startArrow=block;startFill=0;dashed=1;" parent="1" source="wnxSNhhKYnTs5wvNVK_b-7" target="wnxSNhhKYnTs5wvNVK_b-11" edge="1">
          <mxGeometry relative="1" as="geometry" />
        </mxCell>
        <mxCell id="wnxSNhhKYnTs5wvNVK_b-32" style="edgeStyle=orthogonalEdgeStyle;shape=connector;rounded=0;orthogonalLoop=1;jettySize=auto;html=1;strokeColor=default;strokeWidth=1;align=center;verticalAlign=middle;fontFamily=Helvetica;fontSize=11;fontColor=default;labelBackgroundColor=default;startSize=12;endArrow=open;endFill=0;endSize=12;" parent="1" source="wnxSNhhKYnTs5wvNVK_b-11" target="wnxSNhhKYnTs5wvNVK_b-17" edge="1">
          <mxGeometry relative="1" as="geometry">
            <Array as="points">
              <mxPoint x="960" y="570" />
              <mxPoint x="620" y="570" />
            </Array>
          </mxGeometry>
        </mxCell>
        <mxCell id="wnxSNhhKYnTs5wvNVK_b-7" value="IPipelineBuilder" style="swimlane;fontStyle=0;childLayout=stackLayout;horizontal=1;startSize=26;fillColor=none;horizontalStack=0;resizeParent=1;resizeParentMax=0;resizeLast=0;collapsible=1;marginBottom=0;whiteSpace=wrap;html=1;fontFamily=Helvetica;fontSize=11;fontColor=default;labelBackgroundColor=default;" parent="1" vertex="1">
          <mxGeometry x="490" y="310" width="330" height="208" as="geometry" />
        </mxCell>
        <mxCell id="wnxSNhhKYnTs5wvNVK_b-8" value="+ Build(): Pipeline" style="text;strokeColor=none;fillColor=none;align=left;verticalAlign=top;spacingLeft=4;spacingRight=4;overflow=hidden;rotatable=0;points=[[0,0.5],[1,0.5]];portConstraint=eastwest;whiteSpace=wrap;html=1;fontFamily=Helvetica;fontSize=11;fontColor=default;labelBackgroundColor=default;" parent="wnxSNhhKYnTs5wvNVK_b-7" vertex="1">
          <mxGeometry y="26" width="330" height="26" as="geometry" />
        </mxCell>
        <mxCell id="wnxSNhhKYnTs5wvNVK_b-9" value="+ AddBuildAction(action: BuildAction): IPipelineBuilder" style="text;strokeColor=none;fillColor=none;align=left;verticalAlign=top;spacingLeft=4;spacingRight=4;overflow=hidden;rotatable=0;points=[[0,0.5],[1,0.5]];portConstraint=eastwest;whiteSpace=wrap;html=1;fontFamily=Helvetica;fontSize=11;fontColor=default;labelBackgroundColor=default;" parent="wnxSNhhKYnTs5wvNVK_b-7" vertex="1">
          <mxGeometry y="52" width="330" height="26" as="geometry" />
        </mxCell>
        <mxCell id="wnxSNhhKYnTs5wvNVK_b-10" value="+ AddPackageAction(action: PackageAction): IPipelineBuilder" style="text;strokeColor=none;fillColor=none;align=left;verticalAlign=top;spacingLeft=4;spacingRight=4;overflow=hidden;rotatable=0;points=[[0,0.5],[1,0.5]];portConstraint=eastwest;whiteSpace=wrap;html=1;fontFamily=Helvetica;fontSize=11;fontColor=default;labelBackgroundColor=default;" parent="wnxSNhhKYnTs5wvNVK_b-7" vertex="1">
          <mxGeometry y="78" width="330" height="26" as="geometry" />
        </mxCell>
        <mxCell id="wnxSNhhKYnTs5wvNVK_b-35" value="+ AddSourceAction(action: SourceAction): IPipelineBuilder" style="text;strokeColor=none;fillColor=none;align=left;verticalAlign=top;spacingLeft=4;spacingRight=4;overflow=hidden;rotatable=0;points=[[0,0.5],[1,0.5]];portConstraint=eastwest;whiteSpace=wrap;html=1;fontFamily=Helvetica;fontSize=11;fontColor=default;labelBackgroundColor=default;" parent="wnxSNhhKYnTs5wvNVK_b-7" vertex="1">
          <mxGeometry y="104" width="330" height="26" as="geometry" />
        </mxCell>
        <mxCell id="wnxSNhhKYnTs5wvNVK_b-36" value="+ AddUtilityAction(action: UtilityAction): IPipelineBuilder" style="text;strokeColor=none;fillColor=none;align=left;verticalAlign=top;spacingLeft=4;spacingRight=4;overflow=hidden;rotatable=0;points=[[0,0.5],[1,0.5]];portConstraint=eastwest;whiteSpace=wrap;html=1;fontFamily=Helvetica;fontSize=11;fontColor=default;labelBackgroundColor=default;" parent="wnxSNhhKYnTs5wvNVK_b-7" vertex="1">
          <mxGeometry y="130" width="330" height="26" as="geometry" />
        </mxCell>
        <mxCell id="wnxSNhhKYnTs5wvNVK_b-37" value="+ AddAnalysisAction(action: AnalysisAction): IPipelineBuilder" style="text;strokeColor=none;fillColor=none;align=left;verticalAlign=top;spacingLeft=4;spacingRight=4;overflow=hidden;rotatable=0;points=[[0,0.5],[1,0.5]];portConstraint=eastwest;whiteSpace=wrap;html=1;fontFamily=Helvetica;fontSize=11;fontColor=default;labelBackgroundColor=default;" parent="wnxSNhhKYnTs5wvNVK_b-7" vertex="1">
          <mxGeometry y="156" width="330" height="26" as="geometry" />
        </mxCell>
        <mxCell id="wnxSNhhKYnTs5wvNVK_b-39" value="+ AddDeployAction(action: DeployAction): IPipelineBuilder" style="text;strokeColor=none;fillColor=none;align=left;verticalAlign=top;spacingLeft=4;spacingRight=4;overflow=hidden;rotatable=0;points=[[0,0.5],[1,0.5]];portConstraint=eastwest;whiteSpace=wrap;html=1;fontFamily=Helvetica;fontSize=11;fontColor=default;labelBackgroundColor=default;" parent="wnxSNhhKYnTs5wvNVK_b-7" vertex="1">
          <mxGeometry y="182" width="330" height="26" as="geometry" />
        </mxCell>
        <mxCell id="wnxSNhhKYnTs5wvNVK_b-11" value="ConcretePipelineBuilder" style="swimlane;fontStyle=0;childLayout=stackLayout;horizontal=1;startSize=26;fillColor=none;horizontalStack=0;resizeParent=1;resizeParentMax=0;resizeLast=0;collapsible=1;marginBottom=0;whiteSpace=wrap;html=1;fontFamily=Helvetica;fontSize=11;fontColor=default;labelBackgroundColor=default;" parent="1" vertex="1">
          <mxGeometry x="890" y="362" width="140" height="104" as="geometry" />
        </mxCell>
        <mxCell id="wnxSNhhKYnTs5wvNVK_b-12" value="+ field: type" style="text;strokeColor=none;fillColor=none;align=left;verticalAlign=top;spacingLeft=4;spacingRight=4;overflow=hidden;rotatable=0;points=[[0,0.5],[1,0.5]];portConstraint=eastwest;whiteSpace=wrap;html=1;fontFamily=Helvetica;fontSize=11;fontColor=default;labelBackgroundColor=default;" parent="wnxSNhhKYnTs5wvNVK_b-11" vertex="1">
          <mxGeometry y="26" width="140" height="26" as="geometry" />
        </mxCell>
        <mxCell id="wnxSNhhKYnTs5wvNVK_b-13" value="+ field: type" style="text;strokeColor=none;fillColor=none;align=left;verticalAlign=top;spacingLeft=4;spacingRight=4;overflow=hidden;rotatable=0;points=[[0,0.5],[1,0.5]];portConstraint=eastwest;whiteSpace=wrap;html=1;fontFamily=Helvetica;fontSize=11;fontColor=default;labelBackgroundColor=default;" parent="wnxSNhhKYnTs5wvNVK_b-11" vertex="1">
          <mxGeometry y="52" width="140" height="26" as="geometry" />
        </mxCell>
        <mxCell id="wnxSNhhKYnTs5wvNVK_b-14" value="+ field: type" style="text;strokeColor=none;fillColor=none;align=left;verticalAlign=top;spacingLeft=4;spacingRight=4;overflow=hidden;rotatable=0;points=[[0,0.5],[1,0.5]];portConstraint=eastwest;whiteSpace=wrap;html=1;fontFamily=Helvetica;fontSize=11;fontColor=default;labelBackgroundColor=default;" parent="wnxSNhhKYnTs5wvNVK_b-11" vertex="1">
          <mxGeometry y="78" width="140" height="26" as="geometry" />
        </mxCell>
        <mxCell id="wnxSNhhKYnTs5wvNVK_b-17" value="&amp;lt;&amp;lt;abstract&amp;gt;&amp;gt;&lt;br&gt;Component" style="swimlane;fontStyle=0;childLayout=stackLayout;horizontal=1;startSize=40;fillColor=none;horizontalStack=0;resizeParent=1;resizeParentMax=0;resizeLast=0;collapsible=1;marginBottom=0;whiteSpace=wrap;html=1;fontFamily=Helvetica;fontSize=11;fontColor=default;labelBackgroundColor=default;" parent="1" vertex="1">
          <mxGeometry x="540" y="700" width="200" height="92" as="geometry" />
        </mxCell>
        <mxCell id="wnxSNhhKYnTs5wvNVK_b-18" value="+ Operation(): void" style="text;strokeColor=none;fillColor=none;align=left;verticalAlign=top;spacingLeft=4;spacingRight=4;overflow=hidden;rotatable=0;points=[[0,0.5],[1,0.5]];portConstraint=eastwest;whiteSpace=wrap;html=1;fontFamily=Helvetica;fontSize=11;fontColor=default;labelBackgroundColor=default;" parent="wnxSNhhKYnTs5wvNVK_b-17" vertex="1">
          <mxGeometry y="40" width="200" height="26" as="geometry" />
        </mxCell>
        <mxCell id="wnxSNhhKYnTs5wvNVK_b-19" value="+ Accept(visitor: IPipelineVisitor): void" style="text;strokeColor=none;fillColor=none;align=left;verticalAlign=top;spacingLeft=4;spacingRight=4;overflow=hidden;rotatable=0;points=[[0,0.5],[1,0.5]];portConstraint=eastwest;whiteSpace=wrap;html=1;fontFamily=Helvetica;fontSize=11;fontColor=default;labelBackgroundColor=default;" parent="wnxSNhhKYnTs5wvNVK_b-17" vertex="1">
          <mxGeometry y="66" width="200" height="26" as="geometry" />
        </mxCell>
        <mxCell id="wnxSNhhKYnTs5wvNVK_b-29" style="edgeStyle=orthogonalEdgeStyle;shape=connector;rounded=0;orthogonalLoop=1;jettySize=auto;html=1;strokeColor=default;strokeWidth=1;align=center;verticalAlign=middle;fontFamily=Helvetica;fontSize=11;fontColor=default;labelBackgroundColor=default;startSize=12;endArrow=open;endFill=0;endSize=12;" parent="1" source="wnxSNhhKYnTs5wvNVK_b-25" target="wnxSNhhKYnTs5wvNVK_b-17" edge="1">
          <mxGeometry relative="1" as="geometry">
            <Array as="points">
              <mxPoint x="750" y="760" />
              <mxPoint x="750" y="760" />
            </Array>
          </mxGeometry>
        </mxCell>
        <mxCell id="wnxSNhhKYnTs5wvNVK_b-31" style="edgeStyle=orthogonalEdgeStyle;shape=connector;rounded=0;orthogonalLoop=1;jettySize=auto;html=1;strokeColor=default;strokeWidth=1;align=center;verticalAlign=middle;fontFamily=Helvetica;fontSize=11;fontColor=default;labelBackgroundColor=default;startSize=12;endArrow=block;endFill=0;endSize=12;dashed=1;" parent="1" source="wnxSNhhKYnTs5wvNVK_b-25" target="wnxSNhhKYnTs5wvNVK_b-17" edge="1">
          <mxGeometry relative="1" as="geometry">
            <Array as="points">
              <mxPoint x="770" y="740" />
              <mxPoint x="770" y="740" />
            </Array>
          </mxGeometry>
        </mxCell>
        <mxCell id="wnxSNhhKYnTs5wvNVK_b-25" value="Composite" style="swimlane;fontStyle=0;childLayout=stackLayout;horizontal=1;startSize=26;fillColor=none;horizontalStack=0;resizeParent=1;resizeParentMax=0;resizeLast=0;collapsible=1;marginBottom=0;whiteSpace=wrap;html=1;fontFamily=Helvetica;fontSize=11;fontColor=default;labelBackgroundColor=default;" parent="1" vertex="1">
          <mxGeometry x="790" y="700" width="140" height="104" as="geometry" />
        </mxCell>
        <mxCell id="wnxSNhhKYnTs5wvNVK_b-26" value="+ Add(): void" style="text;strokeColor=none;fillColor=none;align=left;verticalAlign=top;spacingLeft=4;spacingRight=4;overflow=hidden;rotatable=0;points=[[0,0.5],[1,0.5]];portConstraint=eastwest;whiteSpace=wrap;html=1;fontFamily=Helvetica;fontSize=11;fontColor=default;labelBackgroundColor=default;" parent="wnxSNhhKYnTs5wvNVK_b-25" vertex="1">
          <mxGeometry y="26" width="140" height="26" as="geometry" />
        </mxCell>
        <mxCell id="wnxSNhhKYnTs5wvNVK_b-27" value="+ Remove(): void" style="text;strokeColor=none;fillColor=none;align=left;verticalAlign=top;spacingLeft=4;spacingRight=4;overflow=hidden;rotatable=0;points=[[0,0.5],[1,0.5]];portConstraint=eastwest;whiteSpace=wrap;html=1;fontFamily=Helvetica;fontSize=11;fontColor=default;labelBackgroundColor=default;" parent="wnxSNhhKYnTs5wvNVK_b-25" vertex="1">
          <mxGeometry y="52" width="140" height="26" as="geometry" />
        </mxCell>
        <mxCell id="wnxSNhhKYnTs5wvNVK_b-28" value="+ GetChild(): Component" style="text;strokeColor=none;fillColor=none;align=left;verticalAlign=top;spacingLeft=4;spacingRight=4;overflow=hidden;rotatable=0;points=[[0,0.5],[1,0.5]];portConstraint=eastwest;whiteSpace=wrap;html=1;fontFamily=Helvetica;fontSize=11;fontColor=default;labelBackgroundColor=default;" parent="wnxSNhhKYnTs5wvNVK_b-25" vertex="1">
          <mxGeometry y="78" width="140" height="26" as="geometry" />
        </mxCell>
        <mxCell id="wnxSNhhKYnTs5wvNVK_b-33" value="1" style="text;html=1;align=center;verticalAlign=middle;resizable=0;points=[];autosize=1;strokeColor=none;fillColor=none;fontFamily=Helvetica;fontSize=11;fontColor=default;labelBackgroundColor=default;" parent="1" vertex="1">
          <mxGeometry x="620" y="280" width="30" height="30" as="geometry" />
        </mxCell>
        <mxCell id="wnxSNhhKYnTs5wvNVK_b-34" value="- builder" style="text;html=1;align=center;verticalAlign=middle;resizable=0;points=[];autosize=1;strokeColor=none;fillColor=none;fontFamily=Helvetica;fontSize=11;fontColor=default;labelBackgroundColor=default;" parent="1" vertex="1">
          <mxGeometry x="660" y="280" width="60" height="30" as="geometry" />
        </mxCell>
        <mxCell id="wnxSNhhKYnTs5wvNVK_b-49" style="edgeStyle=orthogonalEdgeStyle;shape=connector;rounded=0;orthogonalLoop=1;jettySize=auto;html=1;strokeColor=default;strokeWidth=1;align=center;verticalAlign=middle;fontFamily=Helvetica;fontSize=11;fontColor=default;labelBackgroundColor=default;startSize=12;endArrow=block;endFill=0;endSize=12;startArrow=none;startFill=0;" parent="1" source="wnxSNhhKYnTs5wvNVK_b-45" target="wnxSNhhKYnTs5wvNVK_b-25" edge="1">
          <mxGeometry relative="1" as="geometry" />
        </mxCell>
        <mxCell id="wnxSNhhKYnTs5wvNVK_b-45" value="Pipeline" style="swimlane;fontStyle=0;childLayout=stackLayout;horizontal=1;startSize=26;fillColor=none;horizontalStack=0;resizeParent=1;resizeParentMax=0;resizeLast=0;collapsible=1;marginBottom=0;whiteSpace=wrap;html=1;fontFamily=Helvetica;fontSize=11;fontColor=default;labelBackgroundColor=default;" parent="1" vertex="1">
          <mxGeometry x="970" y="713" width="260" height="78" as="geometry" />
        </mxCell>
        <mxCell id="wnxSNhhKYnTs5wvNVK_b-46" value="- notificationService: INotificationService" style="text;strokeColor=none;fillColor=none;align=left;verticalAlign=top;spacingLeft=4;spacingRight=4;overflow=hidden;rotatable=0;points=[[0,0.5],[1,0.5]];portConstraint=eastwest;whiteSpace=wrap;html=1;fontFamily=Helvetica;fontSize=11;fontColor=default;labelBackgroundColor=default;" parent="wnxSNhhKYnTs5wvNVK_b-45" vertex="1">
          <mxGeometry y="26" width="260" height="26" as="geometry" />
        </mxCell>
        <mxCell id="wnxSNhhKYnTs5wvNVK_b-47" value="+ Pipeline(notificationService: INotificationService)" style="text;strokeColor=none;fillColor=none;align=left;verticalAlign=top;spacingLeft=4;spacingRight=4;overflow=hidden;rotatable=0;points=[[0,0.5],[1,0.5]];portConstraint=eastwest;whiteSpace=wrap;html=1;fontFamily=Helvetica;fontSize=11;fontColor=default;labelBackgroundColor=default;" parent="wnxSNhhKYnTs5wvNVK_b-45" vertex="1">
          <mxGeometry y="52" width="260" height="26" as="geometry" />
        </mxCell>
        <mxCell id="wnxSNhhKYnTs5wvNVK_b-59" style="edgeStyle=orthogonalEdgeStyle;shape=connector;rounded=0;orthogonalLoop=1;jettySize=auto;html=1;strokeColor=default;strokeWidth=1;align=center;verticalAlign=middle;fontFamily=Helvetica;fontSize=11;fontColor=default;labelBackgroundColor=default;startSize=12;endArrow=none;endFill=0;endSize=12;dashed=1;startFill=0;" parent="1" source="wnxSNhhKYnTs5wvNVK_b-50" target="wnxSNhhKYnTs5wvNVK_b-17" edge="1">
          <mxGeometry relative="1" as="geometry">
            <Array as="points">
              <mxPoint x="500" y="746" />
              <mxPoint x="500" y="746" />
            </Array>
          </mxGeometry>
        </mxCell>
        <mxCell id="wnxSNhhKYnTs5wvNVK_b-50" value="&amp;lt;&amp;lt;interface&amp;gt;&amp;gt;&lt;br&gt;IPipelineVisitor" style="swimlane;fontStyle=0;childLayout=stackLayout;horizontal=1;startSize=40;fillColor=none;horizontalStack=0;resizeParent=1;resizeParentMax=0;resizeLast=0;collapsible=1;marginBottom=0;whiteSpace=wrap;html=1;fontFamily=Helvetica;fontSize=11;fontColor=default;labelBackgroundColor=default;" parent="1" vertex="1">
          <mxGeometry x="220" y="700" width="260" height="248" as="geometry" />
        </mxCell>
        <mxCell id="wnxSNhhKYnTs5wvNVK_b-51" value="+ VisitPipeline(pipeline: Pipeline): void" style="text;strokeColor=none;fillColor=none;align=left;verticalAlign=top;spacingLeft=4;spacingRight=4;overflow=hidden;rotatable=0;points=[[0,0.5],[1,0.5]];portConstraint=eastwest;whiteSpace=wrap;html=1;fontFamily=Helvetica;fontSize=11;fontColor=default;labelBackgroundColor=default;" parent="wnxSNhhKYnTs5wvNVK_b-50" vertex="1">
          <mxGeometry y="40" width="260" height="26" as="geometry" />
        </mxCell>
        <mxCell id="wnxSNhhKYnTs5wvNVK_b-52" value="+ VisitSourceAction(action: SourceAction): void" style="text;strokeColor=none;fillColor=none;align=left;verticalAlign=top;spacingLeft=4;spacingRight=4;overflow=hidden;rotatable=0;points=[[0,0.5],[1,0.5]];portConstraint=eastwest;whiteSpace=wrap;html=1;fontFamily=Helvetica;fontSize=11;fontColor=default;labelBackgroundColor=default;" parent="wnxSNhhKYnTs5wvNVK_b-50" vertex="1">
          <mxGeometry y="66" width="260" height="26" as="geometry" />
        </mxCell>
        <mxCell id="wnxSNhhKYnTs5wvNVK_b-54" value="+ VisitPackageAction(action: PackageAction): void" style="text;strokeColor=none;fillColor=none;align=left;verticalAlign=top;spacingLeft=4;spacingRight=4;overflow=hidden;rotatable=0;points=[[0,0.5],[1,0.5]];portConstraint=eastwest;whiteSpace=wrap;html=1;fontFamily=Helvetica;fontSize=11;fontColor=default;labelBackgroundColor=default;" parent="wnxSNhhKYnTs5wvNVK_b-50" vertex="1">
          <mxGeometry y="92" width="260" height="26" as="geometry" />
        </mxCell>
        <mxCell id="wnxSNhhKYnTs5wvNVK_b-55" value="+ VisitBuildAction(action: BuildAction): void" style="text;strokeColor=none;fillColor=none;align=left;verticalAlign=top;spacingLeft=4;spacingRight=4;overflow=hidden;rotatable=0;points=[[0,0.5],[1,0.5]];portConstraint=eastwest;whiteSpace=wrap;html=1;fontFamily=Helvetica;fontSize=11;fontColor=default;labelBackgroundColor=default;" parent="wnxSNhhKYnTs5wvNVK_b-50" vertex="1">
          <mxGeometry y="118" width="260" height="26" as="geometry" />
        </mxCell>
        <mxCell id="wnxSNhhKYnTs5wvNVK_b-56" value="+ VisitTestAction(action: TestAction): void" style="text;strokeColor=none;fillColor=none;align=left;verticalAlign=top;spacingLeft=4;spacingRight=4;overflow=hidden;rotatable=0;points=[[0,0.5],[1,0.5]];portConstraint=eastwest;whiteSpace=wrap;html=1;fontFamily=Helvetica;fontSize=11;fontColor=default;labelBackgroundColor=default;" parent="wnxSNhhKYnTs5wvNVK_b-50" vertex="1">
          <mxGeometry y="144" width="260" height="26" as="geometry" />
        </mxCell>
        <mxCell id="wnxSNhhKYnTs5wvNVK_b-57" value="+ VisitAnalysisAction(action: AnalysisAction): void" style="text;strokeColor=none;fillColor=none;align=left;verticalAlign=top;spacingLeft=4;spacingRight=4;overflow=hidden;rotatable=0;points=[[0,0.5],[1,0.5]];portConstraint=eastwest;whiteSpace=wrap;html=1;fontFamily=Helvetica;fontSize=11;fontColor=default;labelBackgroundColor=default;" parent="wnxSNhhKYnTs5wvNVK_b-50" vertex="1">
          <mxGeometry y="170" width="260" height="26" as="geometry" />
        </mxCell>
        <mxCell id="wnxSNhhKYnTs5wvNVK_b-58" value="+ VisitUtilityAction(action: UtilityAction): void" style="text;strokeColor=none;fillColor=none;align=left;verticalAlign=top;spacingLeft=4;spacingRight=4;overflow=hidden;rotatable=0;points=[[0,0.5],[1,0.5]];portConstraint=eastwest;whiteSpace=wrap;html=1;fontFamily=Helvetica;fontSize=11;fontColor=default;labelBackgroundColor=default;" parent="wnxSNhhKYnTs5wvNVK_b-50" vertex="1">
          <mxGeometry y="196" width="260" height="26" as="geometry" />
        </mxCell>
        <mxCell id="wnxSNhhKYnTs5wvNVK_b-80" value="+ VisitDeployAction(action: DeployAction): void" style="text;strokeColor=none;fillColor=none;align=left;verticalAlign=top;spacingLeft=4;spacingRight=4;overflow=hidden;rotatable=0;points=[[0,0.5],[1,0.5]];portConstraint=eastwest;whiteSpace=wrap;html=1;fontFamily=Helvetica;fontSize=11;fontColor=default;labelBackgroundColor=default;" parent="wnxSNhhKYnTs5wvNVK_b-50" vertex="1">
          <mxGeometry y="222" width="260" height="26" as="geometry" />
        </mxCell>
        <mxCell id="wnxSNhhKYnTs5wvNVK_b-73" style="edgeStyle=orthogonalEdgeStyle;shape=connector;rounded=0;orthogonalLoop=1;jettySize=auto;html=1;strokeColor=default;strokeWidth=1;align=center;verticalAlign=middle;fontFamily=Helvetica;fontSize=11;fontColor=default;labelBackgroundColor=default;startSize=12;endArrow=block;endFill=0;endSize=12;dashed=1;" parent="1" source="wnxSNhhKYnTs5wvNVK_b-69" target="wnxSNhhKYnTs5wvNVK_b-50" edge="1">
          <mxGeometry relative="1" as="geometry">
            <Array as="points">
              <mxPoint x="180" y="720" />
              <mxPoint x="180" y="720" />
            </Array>
          </mxGeometry>
        </mxCell>
        <mxCell id="wnxSNhhKYnTs5wvNVK_b-69" value="RunPipelineVisitor" style="swimlane;fontStyle=0;childLayout=stackLayout;horizontal=1;startSize=26;fillColor=none;horizontalStack=0;resizeParent=1;resizeParentMax=0;resizeLast=0;collapsible=1;marginBottom=0;whiteSpace=wrap;html=1;fontFamily=Helvetica;fontSize=11;fontColor=default;labelBackgroundColor=default;" parent="1" vertex="1">
          <mxGeometry x="30" y="700" width="140" height="52" as="geometry" />
        </mxCell>
        <mxCell id="wnxSNhhKYnTs5wvNVK_b-38" value="+ AddTestAction(action: TestAction): IPipelineBuilder" style="text;strokeColor=none;fillColor=none;align=left;verticalAlign=top;spacingLeft=4;spacingRight=4;overflow=hidden;rotatable=0;points=[[0,0.5],[1,0.5]];portConstraint=eastwest;whiteSpace=wrap;html=1;fontFamily=Helvetica;fontSize=11;fontColor=default;labelBackgroundColor=default;" parent="1" vertex="1">
          <mxGeometry x="480" y="492" width="330" height="26" as="geometry" />
        </mxCell>
        <mxCell id="wnxSNhhKYnTs5wvNVK_b-109" style="edgeStyle=orthogonalEdgeStyle;shape=connector;rounded=0;orthogonalLoop=1;jettySize=auto;html=1;strokeColor=default;strokeWidth=1;align=center;verticalAlign=middle;fontFamily=Helvetica;fontSize=11;fontColor=default;labelBackgroundColor=default;startSize=12;endArrow=none;endFill=0;endSize=12;startArrow=block;startFill=0;" parent="1" source="wnxSNhhKYnTs5wvNVK_b-74" target="wnxSNhhKYnTs5wvNVK_b-101" edge="1">
          <mxGeometry relative="1" as="geometry">
            <Array as="points">
              <mxPoint x="170" y="1116" />
            </Array>
          </mxGeometry>
        </mxCell>
        <mxCell id="wnxSNhhKYnTs5wvNVK_b-110" style="edgeStyle=orthogonalEdgeStyle;shape=connector;rounded=0;orthogonalLoop=1;jettySize=auto;html=1;strokeColor=default;strokeWidth=1;align=center;verticalAlign=middle;fontFamily=Helvetica;fontSize=11;fontColor=default;labelBackgroundColor=default;startSize=12;endArrow=none;endFill=0;endSize=12;startArrow=block;startFill=0;" parent="1" source="wnxSNhhKYnTs5wvNVK_b-74" target="wnxSNhhKYnTs5wvNVK_b-102" edge="1">
          <mxGeometry relative="1" as="geometry">
            <Array as="points">
              <mxPoint x="170" y="1196" />
            </Array>
          </mxGeometry>
        </mxCell>
        <mxCell id="wnxSNhhKYnTs5wvNVK_b-111" style="edgeStyle=orthogonalEdgeStyle;shape=connector;rounded=0;orthogonalLoop=1;jettySize=auto;html=1;strokeColor=default;strokeWidth=1;align=center;verticalAlign=middle;fontFamily=Helvetica;fontSize=11;fontColor=default;labelBackgroundColor=default;startSize=12;endArrow=none;endFill=0;endSize=12;startArrow=block;startFill=0;" parent="1" source="wnxSNhhKYnTs5wvNVK_b-74" target="wnxSNhhKYnTs5wvNVK_b-103" edge="1">
          <mxGeometry relative="1" as="geometry">
            <Array as="points">
              <mxPoint x="170" y="1276" />
            </Array>
          </mxGeometry>
        </mxCell>
        <mxCell id="wnxSNhhKYnTs5wvNVK_b-112" style="edgeStyle=orthogonalEdgeStyle;shape=connector;rounded=0;orthogonalLoop=1;jettySize=auto;html=1;strokeColor=default;strokeWidth=1;align=center;verticalAlign=middle;fontFamily=Helvetica;fontSize=11;fontColor=default;labelBackgroundColor=default;startSize=12;endArrow=none;endFill=0;endSize=12;startFill=0;startArrow=block;" parent="1" source="wnxSNhhKYnTs5wvNVK_b-74" target="wnxSNhhKYnTs5wvNVK_b-104" edge="1">
          <mxGeometry relative="1" as="geometry">
            <Array as="points">
              <mxPoint x="170" y="1356" />
            </Array>
          </mxGeometry>
        </mxCell>
        <mxCell id="wnxSNhhKYnTs5wvNVK_b-113" style="edgeStyle=orthogonalEdgeStyle;shape=connector;rounded=0;orthogonalLoop=1;jettySize=auto;html=1;strokeColor=default;strokeWidth=1;align=center;verticalAlign=middle;fontFamily=Helvetica;fontSize=11;fontColor=default;labelBackgroundColor=default;startSize=12;endArrow=none;endFill=0;endSize=12;startArrow=block;startFill=0;" parent="1" source="wnxSNhhKYnTs5wvNVK_b-74" target="wnxSNhhKYnTs5wvNVK_b-105" edge="1">
          <mxGeometry relative="1" as="geometry">
            <mxPoint x="70" y="1410" as="targetPoint" />
            <Array as="points">
              <mxPoint x="170" y="1436" />
            </Array>
          </mxGeometry>
        </mxCell>
        <mxCell id="wnxSNhhKYnTs5wvNVK_b-145" style="edgeStyle=orthogonalEdgeStyle;shape=connector;rounded=0;orthogonalLoop=1;jettySize=auto;html=1;strokeColor=default;strokeWidth=1;align=center;verticalAlign=middle;fontFamily=Helvetica;fontSize=11;fontColor=default;labelBackgroundColor=default;startSize=12;endArrow=block;endFill=0;endSize=12;" parent="1" source="wnxSNhhKYnTs5wvNVK_b-74" target="wnxSNhhKYnTs5wvNVK_b-17" edge="1">
          <mxGeometry relative="1" as="geometry">
            <Array as="points">
              <mxPoint x="100" y="980" />
              <mxPoint x="640" y="980" />
            </Array>
          </mxGeometry>
        </mxCell>
        <mxCell id="wnxSNhhKYnTs5wvNVK_b-74" value="&amp;lt;&amp;lt;abstract&amp;gt;&amp;gt;&lt;br&gt;BuildAction" style="swimlane;fontStyle=0;childLayout=stackLayout;horizontal=1;startSize=40;fillColor=none;horizontalStack=0;resizeParent=1;resizeParentMax=0;resizeLast=0;collapsible=1;marginBottom=0;whiteSpace=wrap;html=1;fontFamily=Helvetica;fontSize=11;fontColor=default;labelBackgroundColor=default;" parent="1" vertex="1">
          <mxGeometry y="1000" width="200" height="66" as="geometry" />
        </mxCell>
        <mxCell id="wnxSNhhKYnTs5wvNVK_b-87" value="+ Build(): void" style="text;strokeColor=none;fillColor=none;align=left;verticalAlign=top;spacingLeft=4;spacingRight=4;overflow=hidden;rotatable=0;points=[[0,0.5],[1,0.5]];portConstraint=eastwest;whiteSpace=wrap;html=1;fontFamily=Helvetica;fontSize=11;fontColor=default;labelBackgroundColor=default;" parent="wnxSNhhKYnTs5wvNVK_b-74" vertex="1">
          <mxGeometry y="40" width="200" height="26" as="geometry" />
        </mxCell>
        <mxCell id="wnxSNhhKYnTs5wvNVK_b-146" style="edgeStyle=orthogonalEdgeStyle;shape=connector;rounded=0;orthogonalLoop=1;jettySize=auto;html=1;strokeColor=default;strokeWidth=1;align=center;verticalAlign=middle;fontFamily=Helvetica;fontSize=11;fontColor=default;labelBackgroundColor=default;startSize=12;endArrow=block;endFill=0;endSize=12;" parent="1" source="wnxSNhhKYnTs5wvNVK_b-77" target="wnxSNhhKYnTs5wvNVK_b-17" edge="1">
          <mxGeometry relative="1" as="geometry">
            <Array as="points">
              <mxPoint x="360" y="980" />
              <mxPoint x="640" y="980" />
            </Array>
          </mxGeometry>
        </mxCell>
        <mxCell id="wnxSNhhKYnTs5wvNVK_b-77" value="&amp;lt;&amp;lt;abstract&amp;gt;&amp;gt;&lt;br&gt;PackageAction" style="swimlane;fontStyle=0;childLayout=stackLayout;horizontal=1;startSize=40;fillColor=none;horizontalStack=0;resizeParent=1;resizeParentMax=0;resizeLast=0;collapsible=1;marginBottom=0;whiteSpace=wrap;html=1;fontFamily=Helvetica;fontSize=11;fontColor=default;labelBackgroundColor=default;" parent="1" vertex="1">
          <mxGeometry x="260" y="1000" width="200" height="66" as="geometry" />
        </mxCell>
        <mxCell id="wnxSNhhKYnTs5wvNVK_b-90" value="+ GetPackage(name: string): void" style="text;strokeColor=none;fillColor=none;align=left;verticalAlign=top;spacingLeft=4;spacingRight=4;overflow=hidden;rotatable=0;points=[[0,0.5],[1,0.5]];portConstraint=eastwest;whiteSpace=wrap;html=1;fontFamily=Helvetica;fontSize=11;fontColor=default;labelBackgroundColor=default;" parent="wnxSNhhKYnTs5wvNVK_b-77" vertex="1">
          <mxGeometry y="40" width="200" height="26" as="geometry" />
        </mxCell>
        <mxCell id="wnxSNhhKYnTs5wvNVK_b-148" style="edgeStyle=orthogonalEdgeStyle;shape=connector;rounded=0;orthogonalLoop=1;jettySize=auto;html=1;strokeColor=default;strokeWidth=1;align=center;verticalAlign=middle;fontFamily=Helvetica;fontSize=11;fontColor=default;labelBackgroundColor=default;startSize=12;endArrow=block;endFill=0;endSize=12;" parent="1" source="wnxSNhhKYnTs5wvNVK_b-78" target="wnxSNhhKYnTs5wvNVK_b-17" edge="1">
          <mxGeometry relative="1" as="geometry">
            <Array as="points">
              <mxPoint x="870" y="980" />
              <mxPoint x="640" y="980" />
            </Array>
          </mxGeometry>
        </mxCell>
        <mxCell id="wnxSNhhKYnTs5wvNVK_b-78" value="&amp;lt;&amp;lt;abstract&amp;gt;&amp;gt;&lt;br&gt;SourceAction" style="swimlane;fontStyle=0;childLayout=stackLayout;horizontal=1;startSize=40;fillColor=none;horizontalStack=0;resizeParent=1;resizeParentMax=0;resizeLast=0;collapsible=1;marginBottom=0;whiteSpace=wrap;html=1;fontFamily=Helvetica;fontSize=11;fontColor=default;labelBackgroundColor=default;" parent="1" vertex="1">
          <mxGeometry x="770" y="1000" width="200" height="66" as="geometry" />
        </mxCell>
        <mxCell id="wnxSNhhKYnTs5wvNVK_b-92" value="+ GetSource(): void" style="text;strokeColor=none;fillColor=none;align=left;verticalAlign=top;spacingLeft=4;spacingRight=4;overflow=hidden;rotatable=0;points=[[0,0.5],[1,0.5]];portConstraint=eastwest;whiteSpace=wrap;html=1;fontFamily=Helvetica;fontSize=11;fontColor=default;labelBackgroundColor=default;" parent="wnxSNhhKYnTs5wvNVK_b-78" vertex="1">
          <mxGeometry y="40" width="200" height="26" as="geometry" />
        </mxCell>
        <mxCell id="wnxSNhhKYnTs5wvNVK_b-149" style="edgeStyle=orthogonalEdgeStyle;shape=connector;rounded=0;orthogonalLoop=1;jettySize=auto;html=1;strokeColor=default;strokeWidth=1;align=center;verticalAlign=middle;fontFamily=Helvetica;fontSize=11;fontColor=default;labelBackgroundColor=default;startSize=12;endArrow=block;endFill=0;endSize=12;" parent="1" source="wnxSNhhKYnTs5wvNVK_b-79" target="wnxSNhhKYnTs5wvNVK_b-17" edge="1">
          <mxGeometry relative="1" as="geometry">
            <Array as="points">
              <mxPoint x="1120" y="980" />
              <mxPoint x="640" y="980" />
            </Array>
          </mxGeometry>
        </mxCell>
        <mxCell id="wnxSNhhKYnTs5wvNVK_b-79" value="&amp;lt;&amp;lt;abstract&amp;gt;&amp;gt;&lt;br&gt;DeployAction" style="swimlane;fontStyle=0;childLayout=stackLayout;horizontal=1;startSize=40;fillColor=none;horizontalStack=0;resizeParent=1;resizeParentMax=0;resizeLast=0;collapsible=1;marginBottom=0;whiteSpace=wrap;html=1;fontFamily=Helvetica;fontSize=11;fontColor=default;labelBackgroundColor=default;" parent="1" vertex="1">
          <mxGeometry x="1020" y="1000" width="200" height="66" as="geometry" />
        </mxCell>
        <mxCell id="wnxSNhhKYnTs5wvNVK_b-95" value="+ Deploy(url: string): void" style="text;strokeColor=none;fillColor=none;align=left;verticalAlign=top;spacingLeft=4;spacingRight=4;overflow=hidden;rotatable=0;points=[[0,0.5],[1,0.5]];portConstraint=eastwest;whiteSpace=wrap;html=1;fontFamily=Helvetica;fontSize=11;fontColor=default;labelBackgroundColor=default;" parent="wnxSNhhKYnTs5wvNVK_b-79" vertex="1">
          <mxGeometry y="40" width="200" height="26" as="geometry" />
        </mxCell>
        <mxCell id="wnxSNhhKYnTs5wvNVK_b-150" style="edgeStyle=orthogonalEdgeStyle;shape=connector;rounded=0;orthogonalLoop=1;jettySize=auto;html=1;strokeColor=default;strokeWidth=1;align=center;verticalAlign=middle;fontFamily=Helvetica;fontSize=11;fontColor=default;labelBackgroundColor=default;startSize=12;endArrow=block;endFill=0;endSize=12;" parent="1" source="wnxSNhhKYnTs5wvNVK_b-81" target="wnxSNhhKYnTs5wvNVK_b-17" edge="1">
          <mxGeometry relative="1" as="geometry">
            <Array as="points">
              <mxPoint x="1360" y="980" />
              <mxPoint x="640" y="980" />
            </Array>
          </mxGeometry>
        </mxCell>
        <mxCell id="wnxSNhhKYnTs5wvNVK_b-81" value="&amp;lt;&amp;lt;abstract&amp;gt;&amp;gt;&lt;br&gt;UtilityAction" style="swimlane;fontStyle=0;childLayout=stackLayout;horizontal=1;startSize=40;fillColor=none;horizontalStack=0;resizeParent=1;resizeParentMax=0;resizeLast=0;collapsible=1;marginBottom=0;whiteSpace=wrap;html=1;fontFamily=Helvetica;fontSize=11;fontColor=default;labelBackgroundColor=default;" parent="1" vertex="1">
          <mxGeometry x="1260" y="1000" width="200" height="66" as="geometry" />
        </mxCell>
        <mxCell id="wnxSNhhKYnTs5wvNVK_b-96" value="+ RunUtilityAction(): void" style="text;strokeColor=none;fillColor=none;align=left;verticalAlign=top;spacingLeft=4;spacingRight=4;overflow=hidden;rotatable=0;points=[[0,0.5],[1,0.5]];portConstraint=eastwest;whiteSpace=wrap;html=1;fontFamily=Helvetica;fontSize=11;fontColor=default;labelBackgroundColor=default;" parent="wnxSNhhKYnTs5wvNVK_b-81" vertex="1">
          <mxGeometry y="40" width="200" height="26" as="geometry" />
        </mxCell>
        <mxCell id="wnxSNhhKYnTs5wvNVK_b-151" style="edgeStyle=orthogonalEdgeStyle;shape=connector;rounded=0;orthogonalLoop=1;jettySize=auto;html=1;strokeColor=default;strokeWidth=1;align=center;verticalAlign=middle;fontFamily=Helvetica;fontSize=11;fontColor=default;labelBackgroundColor=default;startSize=12;endArrow=block;endFill=0;endSize=12;" parent="1" source="wnxSNhhKYnTs5wvNVK_b-82" target="wnxSNhhKYnTs5wvNVK_b-17" edge="1">
          <mxGeometry relative="1" as="geometry">
            <Array as="points">
              <mxPoint x="1590" y="980" />
              <mxPoint x="640" y="980" />
            </Array>
          </mxGeometry>
        </mxCell>
        <mxCell id="wnxSNhhKYnTs5wvNVK_b-82" value="&amp;lt;&amp;lt;abstract&amp;gt;&amp;gt;&lt;br&gt;AnalysisAction" style="swimlane;fontStyle=0;childLayout=stackLayout;horizontal=1;startSize=40;fillColor=none;horizontalStack=0;resizeParent=1;resizeParentMax=0;resizeLast=0;collapsible=1;marginBottom=0;whiteSpace=wrap;html=1;fontFamily=Helvetica;fontSize=11;fontColor=default;labelBackgroundColor=default;" parent="1" vertex="1">
          <mxGeometry x="1490" y="1000" width="200" height="66" as="geometry" />
        </mxCell>
        <mxCell id="wnxSNhhKYnTs5wvNVK_b-98" value="+ RunAnalysisAction(): void" style="text;strokeColor=none;fillColor=none;align=left;verticalAlign=top;spacingLeft=4;spacingRight=4;overflow=hidden;rotatable=0;points=[[0,0.5],[1,0.5]];portConstraint=eastwest;whiteSpace=wrap;html=1;fontFamily=Helvetica;fontSize=11;fontColor=default;labelBackgroundColor=default;" parent="wnxSNhhKYnTs5wvNVK_b-82" vertex="1">
          <mxGeometry y="40" width="200" height="26" as="geometry" />
        </mxCell>
        <mxCell id="wnxSNhhKYnTs5wvNVK_b-147" style="edgeStyle=orthogonalEdgeStyle;shape=connector;rounded=0;orthogonalLoop=1;jettySize=auto;html=1;strokeColor=default;strokeWidth=1;align=center;verticalAlign=middle;fontFamily=Helvetica;fontSize=11;fontColor=default;labelBackgroundColor=default;startSize=12;endArrow=block;endFill=0;endSize=12;" parent="1" source="wnxSNhhKYnTs5wvNVK_b-83" target="wnxSNhhKYnTs5wvNVK_b-17" edge="1">
          <mxGeometry relative="1" as="geometry">
            <Array as="points">
              <mxPoint x="640" y="920" />
              <mxPoint x="640" y="920" />
            </Array>
          </mxGeometry>
        </mxCell>
        <mxCell id="wnxSNhhKYnTs5wvNVK_b-83" value="&amp;lt;&amp;lt;abstract&amp;gt;&amp;gt;&lt;br&gt;TestAction" style="swimlane;fontStyle=0;childLayout=stackLayout;horizontal=1;startSize=40;fillColor=none;horizontalStack=0;resizeParent=1;resizeParentMax=0;resizeLast=0;collapsible=1;marginBottom=0;whiteSpace=wrap;html=1;fontFamily=Helvetica;fontSize=11;fontColor=default;labelBackgroundColor=default;" parent="1" vertex="1">
          <mxGeometry x="520" y="1000" width="200" height="66" as="geometry" />
        </mxCell>
        <mxCell id="wnxSNhhKYnTs5wvNVK_b-91" value="+ RunTestAction(): void" style="text;strokeColor=none;fillColor=none;align=left;verticalAlign=top;spacingLeft=4;spacingRight=4;overflow=hidden;rotatable=0;points=[[0,0.5],[1,0.5]];portConstraint=eastwest;whiteSpace=wrap;html=1;fontFamily=Helvetica;fontSize=11;fontColor=default;labelBackgroundColor=default;" parent="wnxSNhhKYnTs5wvNVK_b-83" vertex="1">
          <mxGeometry y="40" width="200" height="26" as="geometry" />
        </mxCell>
        <mxCell id="wnxSNhhKYnTs5wvNVK_b-101" value="MavenBuildAction" style="swimlane;fontStyle=0;childLayout=stackLayout;horizontal=1;startSize=26;fillColor=none;horizontalStack=0;resizeParent=1;resizeParentMax=0;resizeLast=0;collapsible=1;marginBottom=0;whiteSpace=wrap;html=1;fontFamily=Helvetica;fontSize=11;fontColor=default;labelBackgroundColor=default;" parent="1" vertex="1">
          <mxGeometry y="1090" width="140" height="52" as="geometry" />
        </mxCell>
        <mxCell id="wnxSNhhKYnTs5wvNVK_b-102" value="DotNetCoreBuildAction" style="swimlane;fontStyle=0;childLayout=stackLayout;horizontal=1;startSize=26;fillColor=none;horizontalStack=0;resizeParent=1;resizeParentMax=0;resizeLast=0;collapsible=1;marginBottom=0;whiteSpace=wrap;html=1;fontFamily=Helvetica;fontSize=11;fontColor=default;labelBackgroundColor=default;" parent="1" vertex="1">
          <mxGeometry y="1170" width="140" height="52" as="geometry" />
        </mxCell>
        <mxCell id="wnxSNhhKYnTs5wvNVK_b-103" value="DotNetBuildAction" style="swimlane;fontStyle=0;childLayout=stackLayout;horizontal=1;startSize=26;fillColor=none;horizontalStack=0;resizeParent=1;resizeParentMax=0;resizeLast=0;collapsible=1;marginBottom=0;whiteSpace=wrap;html=1;fontFamily=Helvetica;fontSize=11;fontColor=default;labelBackgroundColor=default;" parent="1" vertex="1">
          <mxGeometry y="1250" width="140" height="52" as="geometry" />
        </mxCell>
        <mxCell id="wnxSNhhKYnTs5wvNVK_b-104" value="JenkinsBuildAction" style="swimlane;fontStyle=0;childLayout=stackLayout;horizontal=1;startSize=26;fillColor=none;horizontalStack=0;resizeParent=1;resizeParentMax=0;resizeLast=0;collapsible=1;marginBottom=0;whiteSpace=wrap;html=1;fontFamily=Helvetica;fontSize=11;fontColor=default;labelBackgroundColor=default;" parent="1" vertex="1">
          <mxGeometry y="1330" width="140" height="52" as="geometry" />
        </mxCell>
        <mxCell id="wnxSNhhKYnTs5wvNVK_b-105" value="AntBuildAction" style="swimlane;fontStyle=0;childLayout=stackLayout;horizontal=1;startSize=26;fillColor=none;horizontalStack=0;resizeParent=1;resizeParentMax=0;resizeLast=0;collapsible=1;marginBottom=0;whiteSpace=wrap;html=1;fontFamily=Helvetica;fontSize=11;fontColor=default;labelBackgroundColor=default;" parent="1" vertex="1">
          <mxGeometry y="1410" width="140" height="52" as="geometry" />
        </mxCell>
        <mxCell id="wnxSNhhKYnTs5wvNVK_b-117" style="edgeStyle=orthogonalEdgeStyle;shape=connector;rounded=0;orthogonalLoop=1;jettySize=auto;html=1;strokeColor=default;strokeWidth=1;align=center;verticalAlign=middle;fontFamily=Helvetica;fontSize=11;fontColor=default;labelBackgroundColor=default;startSize=12;endArrow=block;endFill=0;endSize=12;" parent="1" source="wnxSNhhKYnTs5wvNVK_b-114" target="wnxSNhhKYnTs5wvNVK_b-77" edge="1">
          <mxGeometry relative="1" as="geometry">
            <Array as="points">
              <mxPoint x="430" y="1116" />
            </Array>
          </mxGeometry>
        </mxCell>
        <mxCell id="wnxSNhhKYnTs5wvNVK_b-114" value="NpmPackageAction" style="swimlane;fontStyle=0;childLayout=stackLayout;horizontal=1;startSize=26;fillColor=none;horizontalStack=0;resizeParent=1;resizeParentMax=0;resizeLast=0;collapsible=1;marginBottom=0;whiteSpace=wrap;html=1;fontFamily=Helvetica;fontSize=11;fontColor=default;labelBackgroundColor=default;" parent="1" vertex="1">
          <mxGeometry x="260" y="1090" width="140" height="52" as="geometry" />
        </mxCell>
        <mxCell id="wnxSNhhKYnTs5wvNVK_b-118" style="edgeStyle=orthogonalEdgeStyle;shape=connector;rounded=0;orthogonalLoop=1;jettySize=auto;html=1;strokeColor=default;strokeWidth=1;align=center;verticalAlign=middle;fontFamily=Helvetica;fontSize=11;fontColor=default;labelBackgroundColor=default;startSize=12;endArrow=block;endFill=0;endSize=12;" parent="1" source="wnxSNhhKYnTs5wvNVK_b-115" target="wnxSNhhKYnTs5wvNVK_b-77" edge="1">
          <mxGeometry relative="1" as="geometry">
            <Array as="points">
              <mxPoint x="430" y="1196" />
            </Array>
          </mxGeometry>
        </mxCell>
        <mxCell id="wnxSNhhKYnTs5wvNVK_b-115" value="MavenPackageAction" style="swimlane;fontStyle=0;childLayout=stackLayout;horizontal=1;startSize=26;fillColor=none;horizontalStack=0;resizeParent=1;resizeParentMax=0;resizeLast=0;collapsible=1;marginBottom=0;whiteSpace=wrap;html=1;fontFamily=Helvetica;fontSize=11;fontColor=default;labelBackgroundColor=default;" parent="1" vertex="1">
          <mxGeometry x="260" y="1170" width="140" height="52" as="geometry" />
        </mxCell>
        <mxCell id="wnxSNhhKYnTs5wvNVK_b-119" style="edgeStyle=orthogonalEdgeStyle;shape=connector;rounded=0;orthogonalLoop=1;jettySize=auto;html=1;strokeColor=default;strokeWidth=1;align=center;verticalAlign=middle;fontFamily=Helvetica;fontSize=11;fontColor=default;labelBackgroundColor=default;startSize=12;endArrow=block;endFill=0;endSize=12;" parent="1" source="wnxSNhhKYnTs5wvNVK_b-116" target="wnxSNhhKYnTs5wvNVK_b-77" edge="1">
          <mxGeometry relative="1" as="geometry">
            <Array as="points">
              <mxPoint x="430" y="1276" />
            </Array>
          </mxGeometry>
        </mxCell>
        <mxCell id="wnxSNhhKYnTs5wvNVK_b-116" value="NugetPackageAction" style="swimlane;fontStyle=0;childLayout=stackLayout;horizontal=1;startSize=26;fillColor=none;horizontalStack=0;resizeParent=1;resizeParentMax=0;resizeLast=0;collapsible=1;marginBottom=0;whiteSpace=wrap;html=1;fontFamily=Helvetica;fontSize=11;fontColor=default;labelBackgroundColor=default;" parent="1" vertex="1">
          <mxGeometry x="260" y="1250" width="140" height="52" as="geometry" />
        </mxCell>
        <mxCell id="wnxSNhhKYnTs5wvNVK_b-125" style="edgeStyle=orthogonalEdgeStyle;shape=connector;rounded=0;orthogonalLoop=1;jettySize=auto;html=1;strokeColor=default;strokeWidth=1;align=center;verticalAlign=middle;fontFamily=Helvetica;fontSize=11;fontColor=default;labelBackgroundColor=default;startSize=12;endArrow=block;endFill=0;endSize=12;" parent="1" source="wnxSNhhKYnTs5wvNVK_b-120" target="wnxSNhhKYnTs5wvNVK_b-83" edge="1">
          <mxGeometry relative="1" as="geometry">
            <Array as="points">
              <mxPoint x="690" y="1210" />
              <mxPoint x="690" y="1210" />
            </Array>
          </mxGeometry>
        </mxCell>
        <mxCell id="wnxSNhhKYnTs5wvNVK_b-120" value="PublishCodeCoverageResultAction" style="swimlane;fontStyle=0;childLayout=stackLayout;horizontal=1;startSize=26;fillColor=none;horizontalStack=0;resizeParent=1;resizeParentMax=0;resizeLast=0;collapsible=1;marginBottom=0;whiteSpace=wrap;html=1;fontFamily=Helvetica;fontSize=11;fontColor=default;labelBackgroundColor=default;" parent="1" vertex="1">
          <mxGeometry x="520" y="1250" width="180" height="52" as="geometry" />
        </mxCell>
        <mxCell id="wnxSNhhKYnTs5wvNVK_b-124" style="edgeStyle=orthogonalEdgeStyle;shape=connector;rounded=0;orthogonalLoop=1;jettySize=auto;html=1;strokeColor=default;strokeWidth=1;align=center;verticalAlign=middle;fontFamily=Helvetica;fontSize=11;fontColor=default;labelBackgroundColor=default;startSize=12;endArrow=block;endFill=0;endSize=12;" parent="1" source="wnxSNhhKYnTs5wvNVK_b-121" target="wnxSNhhKYnTs5wvNVK_b-83" edge="1">
          <mxGeometry relative="1" as="geometry">
            <Array as="points">
              <mxPoint x="690" y="1196" />
            </Array>
          </mxGeometry>
        </mxCell>
        <mxCell id="wnxSNhhKYnTs5wvNVK_b-121" value="PublishTestResultAction" style="swimlane;fontStyle=0;childLayout=stackLayout;horizontal=1;startSize=26;fillColor=none;horizontalStack=0;resizeParent=1;resizeParentMax=0;resizeLast=0;collapsible=1;marginBottom=0;whiteSpace=wrap;html=1;fontFamily=Helvetica;fontSize=11;fontColor=default;labelBackgroundColor=default;" parent="1" vertex="1">
          <mxGeometry x="520" y="1170" width="140" height="52" as="geometry" />
        </mxCell>
        <mxCell id="wnxSNhhKYnTs5wvNVK_b-123" style="edgeStyle=orthogonalEdgeStyle;shape=connector;rounded=0;orthogonalLoop=1;jettySize=auto;html=1;strokeColor=default;strokeWidth=1;align=center;verticalAlign=middle;fontFamily=Helvetica;fontSize=11;fontColor=default;labelBackgroundColor=default;startSize=12;endArrow=block;endFill=0;endSize=12;" parent="1" source="wnxSNhhKYnTs5wvNVK_b-122" target="wnxSNhhKYnTs5wvNVK_b-83" edge="1">
          <mxGeometry relative="1" as="geometry">
            <Array as="points">
              <mxPoint x="690" y="1116" />
            </Array>
          </mxGeometry>
        </mxCell>
        <mxCell id="wnxSNhhKYnTs5wvNVK_b-122" value="RunTestAction" style="swimlane;fontStyle=0;childLayout=stackLayout;horizontal=1;startSize=26;fillColor=none;horizontalStack=0;resizeParent=1;resizeParentMax=0;resizeLast=0;collapsible=1;marginBottom=0;whiteSpace=wrap;html=1;fontFamily=Helvetica;fontSize=11;fontColor=default;labelBackgroundColor=default;" parent="1" vertex="1">
          <mxGeometry x="520" y="1090" width="140" height="52" as="geometry" />
        </mxCell>
        <mxCell id="wnxSNhhKYnTs5wvNVK_b-127" style="edgeStyle=orthogonalEdgeStyle;shape=connector;rounded=0;orthogonalLoop=1;jettySize=auto;html=1;strokeColor=default;strokeWidth=1;align=center;verticalAlign=middle;fontFamily=Helvetica;fontSize=11;fontColor=default;labelBackgroundColor=default;startSize=12;endArrow=block;endFill=0;endSize=12;" parent="1" source="wnxSNhhKYnTs5wvNVK_b-126" target="wnxSNhhKYnTs5wvNVK_b-78" edge="1">
          <mxGeometry relative="1" as="geometry">
            <Array as="points">
              <mxPoint x="950" y="1116" />
            </Array>
          </mxGeometry>
        </mxCell>
        <mxCell id="wnxSNhhKYnTs5wvNVK_b-126" value="GitSourceAction" style="swimlane;fontStyle=0;childLayout=stackLayout;horizontal=1;startSize=26;fillColor=none;horizontalStack=0;resizeParent=1;resizeParentMax=0;resizeLast=0;collapsible=1;marginBottom=0;whiteSpace=wrap;html=1;fontFamily=Helvetica;fontSize=11;fontColor=default;labelBackgroundColor=default;" parent="1" vertex="1">
          <mxGeometry x="770" y="1090" width="140" height="52" as="geometry" />
        </mxCell>
        <mxCell id="wnxSNhhKYnTs5wvNVK_b-132" style="edgeStyle=orthogonalEdgeStyle;shape=connector;rounded=0;orthogonalLoop=1;jettySize=auto;html=1;strokeColor=default;strokeWidth=1;align=center;verticalAlign=middle;fontFamily=Helvetica;fontSize=11;fontColor=default;labelBackgroundColor=default;startSize=12;endArrow=block;endFill=0;endSize=12;" parent="1" source="wnxSNhhKYnTs5wvNVK_b-129" target="wnxSNhhKYnTs5wvNVK_b-79" edge="1">
          <mxGeometry relative="1" as="geometry">
            <Array as="points">
              <mxPoint x="1190" y="1116" />
            </Array>
          </mxGeometry>
        </mxCell>
        <mxCell id="wnxSNhhKYnTs5wvNVK_b-129" value="AzureDeployAction" style="swimlane;fontStyle=0;childLayout=stackLayout;horizontal=1;startSize=26;fillColor=none;horizontalStack=0;resizeParent=1;resizeParentMax=0;resizeLast=0;collapsible=1;marginBottom=0;whiteSpace=wrap;html=1;fontFamily=Helvetica;fontSize=11;fontColor=default;labelBackgroundColor=default;" parent="1" vertex="1">
          <mxGeometry x="1020" y="1090" width="140" height="52" as="geometry" />
        </mxCell>
        <mxCell id="wnxSNhhKYnTs5wvNVK_b-131" style="edgeStyle=orthogonalEdgeStyle;shape=connector;rounded=0;orthogonalLoop=1;jettySize=auto;html=1;strokeColor=default;strokeWidth=1;align=center;verticalAlign=middle;fontFamily=Helvetica;fontSize=11;fontColor=default;labelBackgroundColor=default;startSize=12;endArrow=block;endFill=0;endSize=12;" parent="1" source="wnxSNhhKYnTs5wvNVK_b-130" target="wnxSNhhKYnTs5wvNVK_b-79" edge="1">
          <mxGeometry relative="1" as="geometry">
            <Array as="points">
              <mxPoint x="1190" y="1196" />
            </Array>
          </mxGeometry>
        </mxCell>
        <mxCell id="wnxSNhhKYnTs5wvNVK_b-130" value="CustomDeployAction" style="swimlane;fontStyle=0;childLayout=stackLayout;horizontal=1;startSize=26;fillColor=none;horizontalStack=0;resizeParent=1;resizeParentMax=0;resizeLast=0;collapsible=1;marginBottom=0;whiteSpace=wrap;html=1;fontFamily=Helvetica;fontSize=11;fontColor=default;labelBackgroundColor=default;" parent="1" vertex="1">
          <mxGeometry x="1020" y="1170" width="140" height="52" as="geometry" />
        </mxCell>
        <mxCell id="wnxSNhhKYnTs5wvNVK_b-142" style="edgeStyle=orthogonalEdgeStyle;shape=connector;rounded=0;orthogonalLoop=1;jettySize=auto;html=1;strokeColor=default;strokeWidth=1;align=center;verticalAlign=middle;fontFamily=Helvetica;fontSize=11;fontColor=default;labelBackgroundColor=default;startSize=12;endArrow=block;endFill=0;endSize=12;" parent="1" source="wnxSNhhKYnTs5wvNVK_b-133" target="wnxSNhhKYnTs5wvNVK_b-81" edge="1">
          <mxGeometry relative="1" as="geometry">
            <Array as="points">
              <mxPoint x="1440" y="1116" />
            </Array>
          </mxGeometry>
        </mxCell>
        <mxCell id="wnxSNhhKYnTs5wvNVK_b-133" value="CmdUtilityAction" style="swimlane;fontStyle=0;childLayout=stackLayout;horizontal=1;startSize=26;fillColor=none;horizontalStack=0;resizeParent=1;resizeParentMax=0;resizeLast=0;collapsible=1;marginBottom=0;whiteSpace=wrap;html=1;fontFamily=Helvetica;fontSize=11;fontColor=default;labelBackgroundColor=default;" parent="1" vertex="1">
          <mxGeometry x="1260" y="1090" width="140" height="52" as="geometry" />
        </mxCell>
        <mxCell id="wnxSNhhKYnTs5wvNVK_b-141" style="edgeStyle=orthogonalEdgeStyle;shape=connector;rounded=0;orthogonalLoop=1;jettySize=auto;html=1;strokeColor=default;strokeWidth=1;align=center;verticalAlign=middle;fontFamily=Helvetica;fontSize=11;fontColor=default;labelBackgroundColor=default;startSize=12;endArrow=block;endFill=0;endSize=12;" parent="1" source="wnxSNhhKYnTs5wvNVK_b-134" target="wnxSNhhKYnTs5wvNVK_b-81" edge="1">
          <mxGeometry relative="1" as="geometry">
            <Array as="points">
              <mxPoint x="1440" y="1196" />
            </Array>
          </mxGeometry>
        </mxCell>
        <mxCell id="wnxSNhhKYnTs5wvNVK_b-134" value="BatchUtilityAction" style="swimlane;fontStyle=0;childLayout=stackLayout;horizontal=1;startSize=26;fillColor=none;horizontalStack=0;resizeParent=1;resizeParentMax=0;resizeLast=0;collapsible=1;marginBottom=0;whiteSpace=wrap;html=1;fontFamily=Helvetica;fontSize=11;fontColor=default;labelBackgroundColor=default;" parent="1" vertex="1">
          <mxGeometry x="1260" y="1170" width="140" height="52" as="geometry" />
        </mxCell>
        <mxCell id="wnxSNhhKYnTs5wvNVK_b-140" style="edgeStyle=orthogonalEdgeStyle;shape=connector;rounded=0;orthogonalLoop=1;jettySize=auto;html=1;strokeColor=default;strokeWidth=1;align=center;verticalAlign=middle;fontFamily=Helvetica;fontSize=11;fontColor=default;labelBackgroundColor=default;startSize=12;endArrow=block;endFill=0;endSize=12;" parent="1" source="wnxSNhhKYnTs5wvNVK_b-135" target="wnxSNhhKYnTs5wvNVK_b-81" edge="1">
          <mxGeometry relative="1" as="geometry">
            <Array as="points">
              <mxPoint x="1440" y="1276" />
            </Array>
          </mxGeometry>
        </mxCell>
        <mxCell id="wnxSNhhKYnTs5wvNVK_b-135" value="FilesDownloadUtilityAction" style="swimlane;fontStyle=0;childLayout=stackLayout;horizontal=1;startSize=26;fillColor=none;horizontalStack=0;resizeParent=1;resizeParentMax=0;resizeLast=0;collapsible=1;marginBottom=0;whiteSpace=wrap;html=1;fontFamily=Helvetica;fontSize=11;fontColor=default;labelBackgroundColor=default;" parent="1" vertex="1">
          <mxGeometry x="1260" y="1250" width="140" height="52" as="geometry" />
        </mxCell>
        <mxCell id="wnxSNhhKYnTs5wvNVK_b-139" style="edgeStyle=orthogonalEdgeStyle;shape=connector;rounded=0;orthogonalLoop=1;jettySize=auto;html=1;strokeColor=default;strokeWidth=1;align=center;verticalAlign=middle;fontFamily=Helvetica;fontSize=11;fontColor=default;labelBackgroundColor=default;startSize=12;endArrow=block;endFill=0;endSize=12;" parent="1" source="wnxSNhhKYnTs5wvNVK_b-136" target="wnxSNhhKYnTs5wvNVK_b-81" edge="1">
          <mxGeometry relative="1" as="geometry">
            <Array as="points">
              <mxPoint x="1440" y="1356" />
            </Array>
          </mxGeometry>
        </mxCell>
        <mxCell id="wnxSNhhKYnTs5wvNVK_b-136" value="FilesDeleteUtilityAction" style="swimlane;fontStyle=0;childLayout=stackLayout;horizontal=1;startSize=26;fillColor=none;horizontalStack=0;resizeParent=1;resizeParentMax=0;resizeLast=0;collapsible=1;marginBottom=0;whiteSpace=wrap;html=1;fontFamily=Helvetica;fontSize=11;fontColor=default;labelBackgroundColor=default;" parent="1" vertex="1">
          <mxGeometry x="1260" y="1330" width="140" height="52" as="geometry" />
        </mxCell>
        <mxCell id="wnxSNhhKYnTs5wvNVK_b-138" style="edgeStyle=orthogonalEdgeStyle;shape=connector;rounded=0;orthogonalLoop=1;jettySize=auto;html=1;strokeColor=default;strokeWidth=1;align=center;verticalAlign=middle;fontFamily=Helvetica;fontSize=11;fontColor=default;labelBackgroundColor=default;startSize=12;endArrow=block;endFill=0;endSize=12;" parent="1" source="wnxSNhhKYnTs5wvNVK_b-137" target="wnxSNhhKYnTs5wvNVK_b-81" edge="1">
          <mxGeometry relative="1" as="geometry">
            <Array as="points">
              <mxPoint x="1440" y="1436" />
            </Array>
          </mxGeometry>
        </mxCell>
        <mxCell id="wnxSNhhKYnTs5wvNVK_b-137" value="FilesCopyUtilityAction" style="swimlane;fontStyle=0;childLayout=stackLayout;horizontal=1;startSize=26;fillColor=none;horizontalStack=0;resizeParent=1;resizeParentMax=0;resizeLast=0;collapsible=1;marginBottom=0;whiteSpace=wrap;html=1;fontFamily=Helvetica;fontSize=11;fontColor=default;labelBackgroundColor=default;" parent="1" vertex="1">
          <mxGeometry x="1260" y="1410" width="140" height="52" as="geometry" />
        </mxCell>
        <mxCell id="wnxSNhhKYnTs5wvNVK_b-144" style="edgeStyle=orthogonalEdgeStyle;shape=connector;rounded=0;orthogonalLoop=1;jettySize=auto;html=1;strokeColor=default;strokeWidth=1;align=center;verticalAlign=middle;fontFamily=Helvetica;fontSize=11;fontColor=default;labelBackgroundColor=default;startSize=12;endArrow=block;endFill=0;endSize=12;" parent="1" source="wnxSNhhKYnTs5wvNVK_b-143" target="wnxSNhhKYnTs5wvNVK_b-82" edge="1">
          <mxGeometry relative="1" as="geometry">
            <Array as="points">
              <mxPoint x="1670" y="1116" />
            </Array>
          </mxGeometry>
        </mxCell>
        <mxCell id="wnxSNhhKYnTs5wvNVK_b-143" value="SonarqubeAnalysisAction" style="swimlane;fontStyle=0;childLayout=stackLayout;horizontal=1;startSize=26;fillColor=none;horizontalStack=0;resizeParent=1;resizeParentMax=0;resizeLast=0;collapsible=1;marginBottom=0;whiteSpace=wrap;html=1;fontFamily=Helvetica;fontSize=11;fontColor=default;labelBackgroundColor=default;" parent="1" vertex="1">
          <mxGeometry x="1490" y="1090" width="140" height="52" as="geometry" />
        </mxCell>
        <mxCell id="wnxSNhhKYnTs5wvNVK_b-152" value="Notifications" style="shape=folder;fontStyle=1;spacingTop=10;tabWidth=40;tabHeight=14;tabPosition=left;html=1;whiteSpace=wrap;fontFamily=Helvetica;fontSize=11;fontColor=default;labelBackgroundColor=default;" parent="1" vertex="1">
          <mxGeometry x="-10" y="30" width="90" height="50" as="geometry" />
        </mxCell>
      </root>
    </mxGraphModel>
  </diagram>
  <diagram id="YDaRNPNw3xEx6AyXjo7F" name="ProjectManagementSystem">
    <mxGraphModel dx="2537" dy="2084" grid="1" gridSize="10" guides="1" tooltips="1" connect="1" arrows="1" fold="1" page="1" pageScale="1" pageWidth="850" pageHeight="1100" math="0" shadow="0">
      <root>
        <mxCell id="0" />
        <mxCell id="1" parent="0" />
        <mxCell id="YTzpIWlsdkRU3uQJEAFt-24" value="ProjecManagementSystem" style="shape=folder;fontStyle=1;spacingTop=10;tabWidth=40;tabHeight=14;tabPosition=left;html=1;whiteSpace=wrap;fontFamily=Helvetica;fontSize=11;fontColor=default;labelBackgroundColor=default;verticalAlign=top;" vertex="1" parent="1">
          <mxGeometry x="-200" y="-410" width="1790" height="1180" as="geometry" />
        </mxCell>
        <mxCell id="SurAECB8qXhJmPuRRw0C-14" style="edgeStyle=orthogonalEdgeStyle;shape=connector;rounded=0;orthogonalLoop=1;jettySize=auto;html=1;strokeColor=default;strokeWidth=1;align=center;verticalAlign=middle;fontFamily=Helvetica;fontSize=11;fontColor=default;labelBackgroundColor=default;startSize=12;endArrow=none;endFill=0;endSize=12;startFill=0;" edge="1" parent="1" source="SurAECB8qXhJmPuRRw0C-2" target="SurAECB8qXhJmPuRRw0C-10">
          <mxGeometry relative="1" as="geometry">
            <Array as="points">
              <mxPoint x="410" y="180" />
              <mxPoint x="410" y="180" />
            </Array>
          </mxGeometry>
        </mxCell>
        <mxCell id="SurAECB8qXhJmPuRRw0C-17" style="edgeStyle=orthogonalEdgeStyle;shape=connector;rounded=0;orthogonalLoop=1;jettySize=auto;html=1;strokeColor=default;strokeWidth=1;align=center;verticalAlign=middle;fontFamily=Helvetica;fontSize=11;fontColor=default;labelBackgroundColor=default;startSize=12;endArrow=none;endFill=0;endSize=12;startFill=0;" edge="1" parent="1" source="SurAECB8qXhJmPuRRw0C-2" target="SurAECB8qXhJmPuRRw0C-10">
          <mxGeometry relative="1" as="geometry">
            <Array as="points">
              <mxPoint x="490" y="190" />
              <mxPoint x="490" y="190" />
            </Array>
          </mxGeometry>
        </mxCell>
        <mxCell id="SurAECB8qXhJmPuRRw0C-22" style="edgeStyle=orthogonalEdgeStyle;shape=connector;rounded=0;orthogonalLoop=1;jettySize=auto;html=1;strokeColor=default;strokeWidth=1;align=center;verticalAlign=middle;fontFamily=Helvetica;fontSize=11;fontColor=default;labelBackgroundColor=default;startSize=12;endArrow=open;endFill=0;endSize=12;startFill=0;" edge="1" parent="1" source="SurAECB8qXhJmPuRRw0C-2" target="SurAECB8qXhJmPuRRw0C-6">
          <mxGeometry relative="1" as="geometry" />
        </mxCell>
        <mxCell id="SurAECB8qXhJmPuRRw0C-72" style="edgeStyle=orthogonalEdgeStyle;shape=connector;rounded=0;orthogonalLoop=1;jettySize=auto;html=1;strokeColor=default;strokeWidth=1;align=center;verticalAlign=middle;fontFamily=Helvetica;fontSize=11;fontColor=default;labelBackgroundColor=default;startSize=12;endArrow=open;endFill=0;endSize=12;" edge="1" parent="1" source="SurAECB8qXhJmPuRRw0C-2" target="SurAECB8qXhJmPuRRw0C-67">
          <mxGeometry relative="1" as="geometry">
            <Array as="points">
              <mxPoint x="435" y="30" />
              <mxPoint x="100" y="30" />
            </Array>
          </mxGeometry>
        </mxCell>
        <mxCell id="SurAECB8qXhJmPuRRw0C-75" style="edgeStyle=orthogonalEdgeStyle;shape=connector;rounded=0;orthogonalLoop=1;jettySize=auto;html=1;strokeColor=default;strokeWidth=1;align=center;verticalAlign=middle;fontFamily=Helvetica;fontSize=11;fontColor=default;labelBackgroundColor=default;startSize=12;endArrow=open;endFill=0;endSize=12;" edge="1" parent="1">
          <mxGeometry relative="1" as="geometry">
            <mxPoint x="310" y="90" as="sourcePoint" />
            <mxPoint x="170" y="90" as="targetPoint" />
            <Array as="points">
              <mxPoint x="220" y="90" />
              <mxPoint x="220" y="90" />
            </Array>
          </mxGeometry>
        </mxCell>
        <mxCell id="SurAECB8qXhJmPuRRw0C-78" style="edgeStyle=orthogonalEdgeStyle;shape=connector;rounded=0;orthogonalLoop=1;jettySize=auto;html=1;strokeColor=default;strokeWidth=1;align=center;verticalAlign=middle;fontFamily=Helvetica;fontSize=11;fontColor=default;labelBackgroundColor=default;startSize=12;endArrow=open;endFill=0;endSize=12;" edge="1" parent="1" source="SurAECB8qXhJmPuRRw0C-2" target="SurAECB8qXhJmPuRRw0C-67">
          <mxGeometry relative="1" as="geometry">
            <Array as="points">
              <mxPoint x="240" y="130" />
              <mxPoint x="240" y="130" />
            </Array>
          </mxGeometry>
        </mxCell>
        <mxCell id="YTzpIWlsdkRU3uQJEAFt-13" style="edgeStyle=orthogonalEdgeStyle;shape=connector;rounded=0;orthogonalLoop=1;jettySize=auto;html=1;strokeColor=default;strokeWidth=1;align=center;verticalAlign=middle;fontFamily=Helvetica;fontSize=11;fontColor=default;labelBackgroundColor=default;startSize=12;endArrow=open;endFill=0;endSize=12;" edge="1" parent="1" source="SurAECB8qXhJmPuRRw0C-2" target="YTzpIWlsdkRU3uQJEAFt-1">
          <mxGeometry relative="1" as="geometry">
            <Array as="points">
              <mxPoint x="480" y="-10" />
              <mxPoint x="480" y="-10" />
            </Array>
          </mxGeometry>
        </mxCell>
        <mxCell id="SurAECB8qXhJmPuRRw0C-2" value="Project" style="swimlane;fontStyle=0;childLayout=stackLayout;horizontal=1;startSize=26;fillColor=none;horizontalStack=0;resizeParent=1;resizeParentMax=0;resizeLast=0;collapsible=1;marginBottom=0;whiteSpace=wrap;html=1;fontFamily=Helvetica;fontSize=11;fontColor=default;labelBackgroundColor=default;" vertex="1" parent="1">
          <mxGeometry x="310" y="63" width="250" height="78" as="geometry" />
        </mxCell>
        <mxCell id="SurAECB8qXhJmPuRRw0C-3" value="- versionControl: IGitVersionControl" style="text;strokeColor=none;fillColor=none;align=left;verticalAlign=top;spacingLeft=4;spacingRight=4;overflow=hidden;rotatable=0;points=[[0,0.5],[1,0.5]];portConstraint=eastwest;whiteSpace=wrap;html=1;fontFamily=Helvetica;fontSize=11;fontColor=default;labelBackgroundColor=default;" vertex="1" parent="SurAECB8qXhJmPuRRw0C-2">
          <mxGeometry y="26" width="250" height="26" as="geometry" />
        </mxCell>
        <mxCell id="SurAECB8qXhJmPuRRw0C-4" value="+ Project(versionControl: IGitVersionControl)" style="text;strokeColor=none;fillColor=none;align=left;verticalAlign=top;spacingLeft=4;spacingRight=4;overflow=hidden;rotatable=0;points=[[0,0.5],[1,0.5]];portConstraint=eastwest;whiteSpace=wrap;html=1;fontFamily=Helvetica;fontSize=11;fontColor=default;labelBackgroundColor=default;" vertex="1" parent="SurAECB8qXhJmPuRRw0C-2">
          <mxGeometry y="52" width="250" height="26" as="geometry" />
        </mxCell>
        <mxCell id="SurAECB8qXhJmPuRRw0C-92" style="edgeStyle=orthogonalEdgeStyle;shape=connector;rounded=0;orthogonalLoop=1;jettySize=auto;html=1;strokeColor=default;strokeWidth=1;align=center;verticalAlign=middle;fontFamily=Helvetica;fontSize=11;fontColor=default;labelBackgroundColor=default;startSize=12;endArrow=open;endFill=0;endSize=12;" edge="1" parent="1" source="SurAECB8qXhJmPuRRw0C-6" target="SurAECB8qXhJmPuRRw0C-91">
          <mxGeometry relative="1" as="geometry">
            <Array as="points">
              <mxPoint x="810" y="102" />
              <mxPoint x="810" y="102" />
            </Array>
          </mxGeometry>
        </mxCell>
        <mxCell id="SurAECB8qXhJmPuRRw0C-6" value="Backlog" style="swimlane;fontStyle=0;childLayout=stackLayout;horizontal=1;startSize=26;fillColor=none;horizontalStack=0;resizeParent=1;resizeParentMax=0;resizeLast=0;collapsible=1;marginBottom=0;whiteSpace=wrap;html=1;fontFamily=Helvetica;fontSize=11;fontColor=default;labelBackgroundColor=default;" vertex="1" parent="1">
          <mxGeometry x="620" y="76" width="140" height="52" as="geometry" />
        </mxCell>
        <mxCell id="SurAECB8qXhJmPuRRw0C-25" style="edgeStyle=orthogonalEdgeStyle;shape=connector;rounded=0;orthogonalLoop=1;jettySize=auto;html=1;strokeColor=default;strokeWidth=1;align=center;verticalAlign=middle;fontFamily=Helvetica;fontSize=11;fontColor=default;labelBackgroundColor=default;startSize=12;endArrow=open;endFill=0;endSize=12;" edge="1" parent="1" source="SurAECB8qXhJmPuRRw0C-10" target="SurAECB8qXhJmPuRRw0C-6">
          <mxGeometry relative="1" as="geometry" />
        </mxCell>
        <mxCell id="SurAECB8qXhJmPuRRw0C-32" style="edgeStyle=orthogonalEdgeStyle;shape=connector;rounded=0;orthogonalLoop=1;jettySize=auto;html=1;strokeColor=default;strokeWidth=1;align=center;verticalAlign=middle;fontFamily=Helvetica;fontSize=11;fontColor=default;labelBackgroundColor=default;startSize=12;endArrow=open;endFill=0;endSize=12;" edge="1" parent="1" source="SurAECB8qXhJmPuRRw0C-10" target="SurAECB8qXhJmPuRRw0C-28">
          <mxGeometry relative="1" as="geometry" />
        </mxCell>
        <mxCell id="SurAECB8qXhJmPuRRw0C-10" value="&lt;div&gt;&amp;lt;&amp;lt;abstract&amp;gt;&amp;gt;&lt;/div&gt;Sprint" style="swimlane;fontStyle=0;childLayout=stackLayout;horizontal=1;startSize=40;fillColor=none;horizontalStack=0;resizeParent=1;resizeParentMax=0;resizeLast=0;collapsible=1;marginBottom=0;whiteSpace=wrap;html=1;fontFamily=Helvetica;fontSize=11;fontColor=default;labelBackgroundColor=default;" vertex="1" parent="1">
          <mxGeometry x="345" y="220" width="230" height="144" as="geometry" />
        </mxCell>
        <mxCell id="SurAECB8qXhJmPuRRw0C-12" value="- pipeline: Pipeline" style="text;strokeColor=none;fillColor=none;align=left;verticalAlign=top;spacingLeft=4;spacingRight=4;overflow=hidden;rotatable=0;points=[[0,0.5],[1,0.5]];portConstraint=eastwest;whiteSpace=wrap;html=1;fontFamily=Helvetica;fontSize=11;fontColor=default;labelBackgroundColor=default;" vertex="1" parent="SurAECB8qXhJmPuRRw0C-10">
          <mxGeometry y="40" width="230" height="26" as="geometry" />
        </mxCell>
        <mxCell id="SurAECB8qXhJmPuRRw0C-13" value="- pipelineDirector: PipelineDirector" style="text;strokeColor=none;fillColor=none;align=left;verticalAlign=top;spacingLeft=4;spacingRight=4;overflow=hidden;rotatable=0;points=[[0,0.5],[1,0.5]];portConstraint=eastwest;whiteSpace=wrap;html=1;fontFamily=Helvetica;fontSize=11;fontColor=default;labelBackgroundColor=default;" vertex="1" parent="SurAECB8qXhJmPuRRw0C-10">
          <mxGeometry y="66" width="230" height="26" as="geometry" />
        </mxCell>
        <mxCell id="SurAECB8qXhJmPuRRw0C-26" value="+ Sprint(pipelineDirector: PipelineDirector)" style="text;strokeColor=none;fillColor=none;align=left;verticalAlign=top;spacingLeft=4;spacingRight=4;overflow=hidden;rotatable=0;points=[[0,0.5],[1,0.5]];portConstraint=eastwest;whiteSpace=wrap;html=1;fontFamily=Helvetica;fontSize=11;fontColor=default;labelBackgroundColor=default;" vertex="1" parent="SurAECB8qXhJmPuRRw0C-10">
          <mxGeometry y="92" width="230" height="26" as="geometry" />
        </mxCell>
        <mxCell id="SurAECB8qXhJmPuRRw0C-27" value="+ ChangeState(state: ISprintState): void" style="text;strokeColor=none;fillColor=none;align=left;verticalAlign=top;spacingLeft=4;spacingRight=4;overflow=hidden;rotatable=0;points=[[0,0.5],[1,0.5]];portConstraint=eastwest;whiteSpace=wrap;html=1;fontFamily=Helvetica;fontSize=11;fontColor=default;labelBackgroundColor=default;" vertex="1" parent="SurAECB8qXhJmPuRRw0C-10">
          <mxGeometry y="118" width="230" height="26" as="geometry" />
        </mxCell>
        <mxCell id="SurAECB8qXhJmPuRRw0C-15" value="0 ... *" style="text;html=1;align=center;verticalAlign=middle;resizable=0;points=[];autosize=1;strokeColor=none;fillColor=none;fontFamily=Helvetica;fontSize=11;fontColor=default;labelBackgroundColor=default;" vertex="1" parent="1">
          <mxGeometry x="400" y="190" width="50" height="30" as="geometry" />
        </mxCell>
        <mxCell id="SurAECB8qXhJmPuRRw0C-16" value="- closedSprints" style="text;html=1;align=center;verticalAlign=middle;resizable=0;points=[];autosize=1;strokeColor=none;fillColor=none;fontFamily=Helvetica;fontSize=11;fontColor=default;labelBackgroundColor=default;" vertex="1" parent="1">
          <mxGeometry x="315" y="190" width="100" height="30" as="geometry" />
        </mxCell>
        <mxCell id="SurAECB8qXhJmPuRRw0C-18" value="0 ... 1" style="text;html=1;align=center;verticalAlign=middle;resizable=0;points=[];autosize=1;strokeColor=none;fillColor=none;fontFamily=Helvetica;fontSize=11;fontColor=default;labelBackgroundColor=default;" vertex="1" parent="1">
          <mxGeometry x="450" y="190" width="50" height="30" as="geometry" />
        </mxCell>
        <mxCell id="SurAECB8qXhJmPuRRw0C-19" value="- activeSprint" style="text;html=1;align=center;verticalAlign=middle;resizable=0;points=[];autosize=1;strokeColor=none;fillColor=none;fontFamily=Helvetica;fontSize=11;fontColor=default;labelBackgroundColor=default;" vertex="1" parent="1">
          <mxGeometry x="485" y="190" width="90" height="30" as="geometry" />
        </mxCell>
        <mxCell id="SurAECB8qXhJmPuRRw0C-28" value="&lt;div&gt;&amp;lt;&amp;lt;interface&amp;gt;&amp;gt;&lt;/div&gt;ISprintState" style="swimlane;fontStyle=0;childLayout=stackLayout;horizontal=1;startSize=30;fillColor=none;horizontalStack=0;resizeParent=1;resizeParentMax=0;resizeLast=0;collapsible=1;marginBottom=0;whiteSpace=wrap;html=1;fontFamily=Helvetica;fontSize=11;fontColor=default;labelBackgroundColor=default;" vertex="1" parent="1">
          <mxGeometry x="390" y="420" width="140" height="108" as="geometry" />
        </mxCell>
        <mxCell id="SurAECB8qXhJmPuRRw0C-29" value="+ StartSprint(): void" style="text;strokeColor=none;fillColor=none;align=left;verticalAlign=top;spacingLeft=4;spacingRight=4;overflow=hidden;rotatable=0;points=[[0,0.5],[1,0.5]];portConstraint=eastwest;whiteSpace=wrap;html=1;fontFamily=Helvetica;fontSize=11;fontColor=default;labelBackgroundColor=default;" vertex="1" parent="SurAECB8qXhJmPuRRw0C-28">
          <mxGeometry y="30" width="140" height="26" as="geometry" />
        </mxCell>
        <mxCell id="SurAECB8qXhJmPuRRw0C-30" value="+ FinishSprint(): void" style="text;strokeColor=none;fillColor=none;align=left;verticalAlign=top;spacingLeft=4;spacingRight=4;overflow=hidden;rotatable=0;points=[[0,0.5],[1,0.5]];portConstraint=eastwest;whiteSpace=wrap;html=1;fontFamily=Helvetica;fontSize=11;fontColor=default;labelBackgroundColor=default;" vertex="1" parent="SurAECB8qXhJmPuRRw0C-28">
          <mxGeometry y="56" width="140" height="26" as="geometry" />
        </mxCell>
        <mxCell id="SurAECB8qXhJmPuRRw0C-31" value="+ CloseSprint(): void" style="text;strokeColor=none;fillColor=none;align=left;verticalAlign=top;spacingLeft=4;spacingRight=4;overflow=hidden;rotatable=0;points=[[0,0.5],[1,0.5]];portConstraint=eastwest;whiteSpace=wrap;html=1;fontFamily=Helvetica;fontSize=11;fontColor=default;labelBackgroundColor=default;" vertex="1" parent="SurAECB8qXhJmPuRRw0C-28">
          <mxGeometry y="82" width="140" height="26" as="geometry" />
        </mxCell>
        <mxCell id="SurAECB8qXhJmPuRRw0C-51" style="edgeStyle=orthogonalEdgeStyle;shape=connector;rounded=0;orthogonalLoop=1;jettySize=auto;html=1;strokeColor=default;strokeWidth=1;align=center;verticalAlign=middle;fontFamily=Helvetica;fontSize=11;fontColor=default;labelBackgroundColor=default;startSize=12;endArrow=block;endFill=0;endSize=12;dashed=1;" edge="1" parent="1" source="SurAECB8qXhJmPuRRw0C-37" target="SurAECB8qXhJmPuRRw0C-28">
          <mxGeometry relative="1" as="geometry">
            <Array as="points">
              <mxPoint x="630" y="356" />
              <mxPoint x="630" y="450" />
            </Array>
          </mxGeometry>
        </mxCell>
        <mxCell id="SurAECB8qXhJmPuRRw0C-37" value="DoingSprintState" style="swimlane;fontStyle=0;childLayout=stackLayout;horizontal=1;startSize=26;fillColor=none;horizontalStack=0;resizeParent=1;resizeParentMax=0;resizeLast=0;collapsible=1;marginBottom=0;whiteSpace=wrap;html=1;fontFamily=Helvetica;fontSize=11;fontColor=default;labelBackgroundColor=default;" vertex="1" parent="1">
          <mxGeometry x="670" y="320" width="140" height="52" as="geometry" />
        </mxCell>
        <mxCell id="SurAECB8qXhJmPuRRw0C-52" style="edgeStyle=orthogonalEdgeStyle;shape=connector;rounded=0;orthogonalLoop=1;jettySize=auto;html=1;strokeColor=default;strokeWidth=1;align=center;verticalAlign=middle;fontFamily=Helvetica;fontSize=11;fontColor=default;labelBackgroundColor=default;startSize=12;endArrow=block;endFill=0;endSize=12;dashed=1;" edge="1" parent="1" source="SurAECB8qXhJmPuRRw0C-41" target="SurAECB8qXhJmPuRRw0C-28">
          <mxGeometry relative="1" as="geometry">
            <Array as="points">
              <mxPoint x="640" y="426" />
              <mxPoint x="640" y="470" />
            </Array>
          </mxGeometry>
        </mxCell>
        <mxCell id="SurAECB8qXhJmPuRRw0C-41" value="CreateSprintState" style="swimlane;fontStyle=0;childLayout=stackLayout;horizontal=1;startSize=26;fillColor=none;horizontalStack=0;resizeParent=1;resizeParentMax=0;resizeLast=0;collapsible=1;marginBottom=0;whiteSpace=wrap;html=1;fontFamily=Helvetica;fontSize=11;fontColor=default;labelBackgroundColor=default;" vertex="1" parent="1">
          <mxGeometry x="670" y="390" width="140" height="52" as="geometry" />
        </mxCell>
        <mxCell id="SurAECB8qXhJmPuRRw0C-53" style="edgeStyle=orthogonalEdgeStyle;shape=connector;rounded=0;orthogonalLoop=1;jettySize=auto;html=1;strokeColor=default;strokeWidth=1;align=center;verticalAlign=middle;fontFamily=Helvetica;fontSize=11;fontColor=default;labelBackgroundColor=default;startSize=12;endArrow=block;endFill=0;endSize=12;dashed=1;" edge="1" parent="1" source="SurAECB8qXhJmPuRRw0C-42" target="SurAECB8qXhJmPuRRw0C-28">
          <mxGeometry relative="1" as="geometry">
            <Array as="points">
              <mxPoint x="650" y="490" />
              <mxPoint x="650" y="490" />
            </Array>
          </mxGeometry>
        </mxCell>
        <mxCell id="SurAECB8qXhJmPuRRw0C-42" value="ClosedSprintState" style="swimlane;fontStyle=0;childLayout=stackLayout;horizontal=1;startSize=26;fillColor=none;horizontalStack=0;resizeParent=1;resizeParentMax=0;resizeLast=0;collapsible=1;marginBottom=0;whiteSpace=wrap;html=1;fontFamily=Helvetica;fontSize=11;fontColor=default;labelBackgroundColor=default;" vertex="1" parent="1">
          <mxGeometry x="670" y="460" width="140" height="52" as="geometry" />
        </mxCell>
        <mxCell id="SurAECB8qXhJmPuRRw0C-54" style="edgeStyle=orthogonalEdgeStyle;shape=connector;rounded=0;orthogonalLoop=1;jettySize=auto;html=1;strokeColor=default;strokeWidth=1;align=center;verticalAlign=middle;fontFamily=Helvetica;fontSize=11;fontColor=default;labelBackgroundColor=default;startSize=12;endArrow=block;endFill=0;endSize=12;dashed=1;" edge="1" parent="1" source="SurAECB8qXhJmPuRRw0C-43" target="SurAECB8qXhJmPuRRw0C-28">
          <mxGeometry relative="1" as="geometry">
            <Array as="points">
              <mxPoint x="640" y="570" />
              <mxPoint x="640" y="510" />
            </Array>
          </mxGeometry>
        </mxCell>
        <mxCell id="SurAECB8qXhJmPuRRw0C-43" value="FinishedSprintState" style="swimlane;fontStyle=0;childLayout=stackLayout;horizontal=1;startSize=26;fillColor=none;horizontalStack=0;resizeParent=1;resizeParentMax=0;resizeLast=0;collapsible=1;marginBottom=0;whiteSpace=wrap;html=1;fontFamily=Helvetica;fontSize=11;fontColor=default;labelBackgroundColor=default;" vertex="1" parent="1">
          <mxGeometry x="580" y="540" width="320" height="78" as="geometry" />
        </mxCell>
        <mxCell id="SurAECB8qXhJmPuRRw0C-44" value="- notificationService: INotificationService" style="text;strokeColor=none;fillColor=none;align=left;verticalAlign=top;spacingLeft=4;spacingRight=4;overflow=hidden;rotatable=0;points=[[0,0.5],[1,0.5]];portConstraint=eastwest;whiteSpace=wrap;html=1;fontFamily=Helvetica;fontSize=11;fontColor=default;labelBackgroundColor=default;" vertex="1" parent="SurAECB8qXhJmPuRRw0C-43">
          <mxGeometry y="26" width="320" height="26" as="geometry" />
        </mxCell>
        <mxCell id="SurAECB8qXhJmPuRRw0C-50" value="+ FinishedSprintState(notificationService: INotificationService)" style="text;strokeColor=none;fillColor=none;align=left;verticalAlign=top;spacingLeft=4;spacingRight=4;overflow=hidden;rotatable=0;points=[[0,0.5],[1,0.5]];portConstraint=eastwest;whiteSpace=wrap;html=1;fontFamily=Helvetica;fontSize=11;fontColor=default;labelBackgroundColor=default;" vertex="1" parent="SurAECB8qXhJmPuRRw0C-43">
          <mxGeometry y="52" width="320" height="26" as="geometry" />
        </mxCell>
        <mxCell id="SurAECB8qXhJmPuRRw0C-66" style="edgeStyle=orthogonalEdgeStyle;shape=connector;rounded=0;orthogonalLoop=1;jettySize=auto;html=1;strokeColor=default;strokeWidth=1;align=center;verticalAlign=middle;fontFamily=Helvetica;fontSize=11;fontColor=default;labelBackgroundColor=default;startSize=12;endArrow=block;endFill=0;endSize=12;" edge="1" parent="1" source="SurAECB8qXhJmPuRRw0C-56" target="SurAECB8qXhJmPuRRw0C-10">
          <mxGeometry relative="1" as="geometry">
            <Array as="points">
              <mxPoint x="150" y="340" />
            </Array>
          </mxGeometry>
        </mxCell>
        <mxCell id="SurAECB8qXhJmPuRRw0C-56" value="ReviewSprint" style="swimlane;fontStyle=0;childLayout=stackLayout;horizontal=1;startSize=26;fillColor=none;horizontalStack=0;resizeParent=1;resizeParentMax=0;resizeLast=0;collapsible=1;marginBottom=0;whiteSpace=wrap;html=1;fontFamily=Helvetica;fontSize=11;fontColor=default;labelBackgroundColor=default;" vertex="1" parent="1">
          <mxGeometry x="60" y="420" width="140" height="52" as="geometry" />
        </mxCell>
        <mxCell id="SurAECB8qXhJmPuRRw0C-65" style="edgeStyle=orthogonalEdgeStyle;shape=connector;rounded=0;orthogonalLoop=1;jettySize=auto;html=1;strokeColor=default;strokeWidth=1;align=center;verticalAlign=middle;fontFamily=Helvetica;fontSize=11;fontColor=default;labelBackgroundColor=default;startSize=12;endArrow=block;endFill=0;endSize=12;" edge="1" parent="1" source="SurAECB8qXhJmPuRRw0C-60" target="SurAECB8qXhJmPuRRw0C-10">
          <mxGeometry relative="1" as="geometry">
            <Array as="points">
              <mxPoint x="280" y="340" />
            </Array>
          </mxGeometry>
        </mxCell>
        <mxCell id="SurAECB8qXhJmPuRRw0C-60" value="ReleaseSprint" style="swimlane;fontStyle=0;childLayout=stackLayout;horizontal=1;startSize=26;fillColor=none;horizontalStack=0;resizeParent=1;resizeParentMax=0;resizeLast=0;collapsible=1;marginBottom=0;whiteSpace=wrap;html=1;fontFamily=Helvetica;fontSize=11;fontColor=default;labelBackgroundColor=default;" vertex="1" parent="1">
          <mxGeometry x="220" y="420" width="140" height="52" as="geometry" />
        </mxCell>
        <mxCell id="SurAECB8qXhJmPuRRw0C-71" style="edgeStyle=orthogonalEdgeStyle;shape=connector;rounded=0;orthogonalLoop=1;jettySize=auto;html=1;strokeColor=default;strokeWidth=1;align=center;verticalAlign=middle;fontFamily=Helvetica;fontSize=11;fontColor=default;labelBackgroundColor=default;startSize=12;endArrow=none;endFill=0;endSize=12;startFill=0;startArrow=open;" edge="1" parent="1" source="SurAECB8qXhJmPuRRw0C-67" target="SurAECB8qXhJmPuRRw0C-10">
          <mxGeometry relative="1" as="geometry">
            <Array as="points">
              <mxPoint x="90" y="260" />
            </Array>
          </mxGeometry>
        </mxCell>
        <mxCell id="SurAECB8qXhJmPuRRw0C-111" style="edgeStyle=orthogonalEdgeStyle;shape=connector;rounded=0;orthogonalLoop=1;jettySize=auto;html=1;strokeColor=default;strokeWidth=1;align=center;verticalAlign=middle;fontFamily=Helvetica;fontSize=11;fontColor=default;labelBackgroundColor=default;startSize=12;endArrow=none;endFill=0;endSize=12;startArrow=open;startFill=0;" edge="1" parent="1" source="SurAECB8qXhJmPuRRw0C-67" target="SurAECB8qXhJmPuRRw0C-91">
          <mxGeometry relative="1" as="geometry">
            <Array as="points">
              <mxPoint y="115" />
              <mxPoint y="-20" />
              <mxPoint x="880" y="-20" />
            </Array>
          </mxGeometry>
        </mxCell>
        <mxCell id="SurAECB8qXhJmPuRRw0C-67" value="User" style="swimlane;fontStyle=0;childLayout=stackLayout;horizontal=1;startSize=26;fillColor=none;horizontalStack=0;resizeParent=1;resizeParentMax=0;resizeLast=0;collapsible=1;marginBottom=0;whiteSpace=wrap;html=1;fontFamily=Helvetica;fontSize=11;fontColor=default;labelBackgroundColor=default;" vertex="1" parent="1">
          <mxGeometry x="30" y="63" width="140" height="104" as="geometry" />
        </mxCell>
        <mxCell id="SurAECB8qXhJmPuRRw0C-68" value="&amp;nbsp;" style="text;strokeColor=none;fillColor=none;align=left;verticalAlign=top;spacingLeft=4;spacingRight=4;overflow=hidden;rotatable=0;points=[[0,0.5],[1,0.5]];portConstraint=eastwest;whiteSpace=wrap;html=1;fontFamily=Helvetica;fontSize=11;fontColor=default;labelBackgroundColor=default;" vertex="1" parent="SurAECB8qXhJmPuRRw0C-67">
          <mxGeometry y="26" width="140" height="26" as="geometry" />
        </mxCell>
        <mxCell id="SurAECB8qXhJmPuRRw0C-69" value="&amp;nbsp;" style="text;strokeColor=none;fillColor=none;align=left;verticalAlign=top;spacingLeft=4;spacingRight=4;overflow=hidden;rotatable=0;points=[[0,0.5],[1,0.5]];portConstraint=eastwest;whiteSpace=wrap;html=1;fontFamily=Helvetica;fontSize=11;fontColor=default;labelBackgroundColor=default;" vertex="1" parent="SurAECB8qXhJmPuRRw0C-67">
          <mxGeometry y="52" width="140" height="26" as="geometry" />
        </mxCell>
        <mxCell id="SurAECB8qXhJmPuRRw0C-70" value="&amp;nbsp;" style="text;strokeColor=none;fillColor=none;align=left;verticalAlign=top;spacingLeft=4;spacingRight=4;overflow=hidden;rotatable=0;points=[[0,0.5],[1,0.5]];portConstraint=eastwest;whiteSpace=wrap;html=1;fontFamily=Helvetica;fontSize=11;fontColor=default;labelBackgroundColor=default;" vertex="1" parent="SurAECB8qXhJmPuRRw0C-67">
          <mxGeometry y="78" width="140" height="26" as="geometry" />
        </mxCell>
        <mxCell id="SurAECB8qXhJmPuRRw0C-73" value="1 ... *" style="text;html=1;align=center;verticalAlign=middle;resizable=0;points=[];autosize=1;strokeColor=none;fillColor=none;fontFamily=Helvetica;fontSize=11;fontColor=default;labelBackgroundColor=default;" vertex="1" parent="1">
          <mxGeometry x="100" y="3" width="50" height="30" as="geometry" />
        </mxCell>
        <mxCell id="SurAECB8qXhJmPuRRw0C-74" value="- developers" style="text;html=1;align=center;verticalAlign=middle;resizable=0;points=[];autosize=1;strokeColor=none;fillColor=none;fontFamily=Helvetica;fontSize=11;fontColor=default;labelBackgroundColor=default;" vertex="1" parent="1">
          <mxGeometry x="100" y="33" width="80" height="30" as="geometry" />
        </mxCell>
        <mxCell id="SurAECB8qXhJmPuRRw0C-76" value="- testers" style="text;html=1;align=center;verticalAlign=middle;resizable=0;points=[];autosize=1;strokeColor=none;fillColor=none;fontFamily=Helvetica;fontSize=11;fontColor=default;labelBackgroundColor=default;" vertex="1" parent="1">
          <mxGeometry x="170" y="63" width="60" height="30" as="geometry" />
        </mxCell>
        <mxCell id="SurAECB8qXhJmPuRRw0C-77" value="1" style="text;html=1;align=center;verticalAlign=middle;resizable=0;points=[];autosize=1;strokeColor=none;fillColor=none;fontFamily=Helvetica;fontSize=11;fontColor=default;labelBackgroundColor=default;" vertex="1" parent="1">
          <mxGeometry x="170" y="87" width="30" height="30" as="geometry" />
        </mxCell>
        <mxCell id="SurAECB8qXhJmPuRRw0C-79" value="- scrumMaster" style="text;html=1;align=center;verticalAlign=middle;resizable=0;points=[];autosize=1;strokeColor=none;fillColor=none;fontFamily=Helvetica;fontSize=11;fontColor=default;labelBackgroundColor=default;" vertex="1" parent="1">
          <mxGeometry x="90" y="167" width="90" height="30" as="geometry" />
        </mxCell>
        <mxCell id="SurAECB8qXhJmPuRRw0C-80" value="1" style="text;html=1;align=center;verticalAlign=middle;resizable=0;points=[];autosize=1;strokeColor=none;fillColor=none;fontFamily=Helvetica;fontSize=11;fontColor=default;labelBackgroundColor=default;" vertex="1" parent="1">
          <mxGeometry x="60" y="167" width="30" height="30" as="geometry" />
        </mxCell>
        <mxCell id="SurAECB8qXhJmPuRRw0C-81" value="- productOwner" style="text;html=1;align=center;verticalAlign=middle;resizable=0;points=[];autosize=1;strokeColor=none;fillColor=none;fontFamily=Helvetica;fontSize=11;fontColor=default;labelBackgroundColor=default;" vertex="1" parent="1">
          <mxGeometry x="160" y="100" width="100" height="30" as="geometry" />
        </mxCell>
        <mxCell id="SurAECB8qXhJmPuRRw0C-83" value="1" style="text;html=1;align=center;verticalAlign=middle;resizable=0;points=[];autosize=1;strokeColor=none;fillColor=none;fontFamily=Helvetica;fontSize=11;fontColor=default;labelBackgroundColor=default;" vertex="1" parent="1">
          <mxGeometry x="170" y="130" width="30" height="30" as="geometry" />
        </mxCell>
        <mxCell id="SurAECB8qXhJmPuRRw0C-88" style="edgeStyle=orthogonalEdgeStyle;shape=connector;rounded=0;orthogonalLoop=1;jettySize=auto;html=1;strokeColor=default;strokeWidth=1;align=center;verticalAlign=middle;fontFamily=Helvetica;fontSize=11;fontColor=default;labelBackgroundColor=default;startSize=12;endArrow=open;endFill=0;endSize=12;" edge="1" parent="1" source="SurAECB8qXhJmPuRRw0C-84" target="SurAECB8qXhJmPuRRw0C-10">
          <mxGeometry relative="1" as="geometry">
            <Array as="points">
              <mxPoint x="-50" y="310" />
            </Array>
          </mxGeometry>
        </mxCell>
        <mxCell id="SurAECB8qXhJmPuRRw0C-90" style="edgeStyle=orthogonalEdgeStyle;shape=connector;rounded=0;orthogonalLoop=1;jettySize=auto;html=1;strokeColor=default;strokeWidth=1;align=center;verticalAlign=middle;fontFamily=Helvetica;fontSize=11;fontColor=default;labelBackgroundColor=default;startSize=12;endArrow=open;endFill=0;endSize=12;" edge="1" parent="1" source="SurAECB8qXhJmPuRRw0C-84" target="SurAECB8qXhJmPuRRw0C-89">
          <mxGeometry relative="1" as="geometry" />
        </mxCell>
        <mxCell id="SurAECB8qXhJmPuRRw0C-84" value="Report" style="swimlane;fontStyle=0;childLayout=stackLayout;horizontal=1;startSize=26;fillColor=none;horizontalStack=0;resizeParent=1;resizeParentMax=0;resizeLast=0;collapsible=1;marginBottom=0;whiteSpace=wrap;html=1;fontFamily=Helvetica;fontSize=11;fontColor=default;labelBackgroundColor=default;" vertex="1" parent="1">
          <mxGeometry x="-120" y="420" width="140" height="52" as="geometry" />
        </mxCell>
        <mxCell id="SurAECB8qXhJmPuRRw0C-89" value="ReportTemplate" style="swimlane;fontStyle=0;childLayout=stackLayout;horizontal=1;startSize=26;fillColor=none;horizontalStack=0;resizeParent=1;resizeParentMax=0;resizeLast=0;collapsible=1;marginBottom=0;whiteSpace=wrap;html=1;fontFamily=Helvetica;fontSize=11;fontColor=default;labelBackgroundColor=default;" vertex="1" parent="1">
          <mxGeometry x="-120" y="512" width="140" height="52" as="geometry" />
        </mxCell>
        <mxCell id="SurAECB8qXhJmPuRRw0C-109" style="edgeStyle=orthogonalEdgeStyle;shape=connector;rounded=0;orthogonalLoop=1;jettySize=auto;html=1;strokeColor=default;strokeWidth=1;align=center;verticalAlign=middle;fontFamily=Helvetica;fontSize=11;fontColor=default;labelBackgroundColor=default;startSize=12;endArrow=none;endFill=0;endSize=12;startArrow=block;startFill=0;" edge="1" parent="1" source="SurAECB8qXhJmPuRRw0C-91" target="SurAECB8qXhJmPuRRw0C-100">
          <mxGeometry relative="1" as="geometry">
            <Array as="points">
              <mxPoint x="1140" y="90" />
              <mxPoint x="1140" y="90" />
            </Array>
          </mxGeometry>
        </mxCell>
        <mxCell id="SurAECB8qXhJmPuRRw0C-110" style="edgeStyle=orthogonalEdgeStyle;shape=connector;rounded=0;orthogonalLoop=1;jettySize=auto;html=1;strokeColor=default;strokeWidth=1;align=center;verticalAlign=middle;fontFamily=Helvetica;fontSize=11;fontColor=default;labelBackgroundColor=default;startSize=12;endArrow=none;endFill=0;endSize=12;startArrow=block;startFill=0;" edge="1" parent="1" source="SurAECB8qXhJmPuRRw0C-91" target="SurAECB8qXhJmPuRRw0C-104">
          <mxGeometry relative="1" as="geometry">
            <Array as="points">
              <mxPoint x="1120" y="120" />
              <mxPoint x="1120" y="120" />
            </Array>
          </mxGeometry>
        </mxCell>
        <mxCell id="SurAECB8qXhJmPuRRw0C-119" style="edgeStyle=orthogonalEdgeStyle;shape=connector;rounded=0;orthogonalLoop=1;jettySize=auto;html=1;strokeColor=default;strokeWidth=1;align=center;verticalAlign=middle;fontFamily=Helvetica;fontSize=11;fontColor=default;labelBackgroundColor=default;startSize=12;endArrow=open;endFill=0;endSize=12;" edge="1" parent="1" source="SurAECB8qXhJmPuRRw0C-91" target="SurAECB8qXhJmPuRRw0C-113">
          <mxGeometry relative="1" as="geometry" />
        </mxCell>
        <mxCell id="SurAECB8qXhJmPuRRw0C-91" value="&lt;div&gt;&amp;lt;&amp;lt;abstract&amp;gt;&amp;gt;&lt;/div&gt;BacklogItem" style="swimlane;fontStyle=0;childLayout=stackLayout;horizontal=1;startSize=32;fillColor=none;horizontalStack=0;resizeParent=1;resizeParentMax=0;resizeLast=0;collapsible=1;marginBottom=0;whiteSpace=wrap;html=1;fontFamily=Helvetica;fontSize=11;fontColor=default;labelBackgroundColor=default;" vertex="1" parent="1">
          <mxGeometry x="870" y="72" width="220" height="58" as="geometry" />
        </mxCell>
        <mxCell id="SurAECB8qXhJmPuRRw0C-95" value="+ ChangeState(state: IBacklogItemState)" style="text;strokeColor=none;fillColor=none;align=left;verticalAlign=top;spacingLeft=4;spacingRight=4;overflow=hidden;rotatable=0;points=[[0,0.5],[1,0.5]];portConstraint=eastwest;whiteSpace=wrap;html=1;fontFamily=Helvetica;fontSize=11;fontColor=default;labelBackgroundColor=default;" vertex="1" parent="SurAECB8qXhJmPuRRw0C-91">
          <mxGeometry y="32" width="220" height="26" as="geometry" />
        </mxCell>
        <mxCell id="SurAECB8qXhJmPuRRw0C-93" value="0 ... *" style="text;html=1;align=center;verticalAlign=middle;resizable=0;points=[];autosize=1;strokeColor=none;fillColor=none;fontFamily=Helvetica;fontSize=11;fontColor=default;labelBackgroundColor=default;" vertex="1" parent="1">
          <mxGeometry x="820" y="100" width="50" height="30" as="geometry" />
        </mxCell>
        <mxCell id="SurAECB8qXhJmPuRRw0C-94" value="- items" style="text;html=1;align=center;verticalAlign=middle;resizable=0;points=[];autosize=1;strokeColor=none;fillColor=none;fontFamily=Helvetica;fontSize=11;fontColor=default;labelBackgroundColor=default;" vertex="1" parent="1">
          <mxGeometry x="810" y="70" width="60" height="30" as="geometry" />
        </mxCell>
        <mxCell id="SurAECB8qXhJmPuRRw0C-97" style="edgeStyle=orthogonalEdgeStyle;shape=connector;rounded=0;orthogonalLoop=1;jettySize=auto;html=1;strokeColor=default;strokeWidth=1;align=center;verticalAlign=middle;fontFamily=Helvetica;fontSize=11;fontColor=default;labelBackgroundColor=default;startSize=12;endArrow=none;endFill=0;endSize=12;entryX=0.25;entryY=0;entryDx=0;entryDy=0;exitX=0.75;exitY=0;exitDx=0;exitDy=0;startFill=0;" edge="1" parent="1" source="SurAECB8qXhJmPuRRw0C-91" target="SurAECB8qXhJmPuRRw0C-91">
          <mxGeometry relative="1" as="geometry">
            <Array as="points">
              <mxPoint x="1035" y="30" />
              <mxPoint x="925" y="30" />
            </Array>
          </mxGeometry>
        </mxCell>
        <mxCell id="SurAECB8qXhJmPuRRw0C-98" value="0 ... *" style="text;html=1;align=center;verticalAlign=middle;resizable=0;points=[];autosize=1;strokeColor=none;fillColor=none;fontFamily=Helvetica;fontSize=11;fontColor=default;labelBackgroundColor=default;" vertex="1" parent="1">
          <mxGeometry x="880" y="46" width="50" height="30" as="geometry" />
        </mxCell>
        <mxCell id="SurAECB8qXhJmPuRRw0C-99" value="- subTasks" style="text;html=1;align=center;verticalAlign=middle;resizable=0;points=[];autosize=1;strokeColor=none;fillColor=none;fontFamily=Helvetica;fontSize=11;fontColor=default;labelBackgroundColor=default;" vertex="1" parent="1">
          <mxGeometry x="920" y="42" width="80" height="30" as="geometry" />
        </mxCell>
        <mxCell id="SurAECB8qXhJmPuRRw0C-100" value="EditableBacklogItem" style="swimlane;fontStyle=0;childLayout=stackLayout;horizontal=1;startSize=26;fillColor=none;horizontalStack=0;resizeParent=1;resizeParentMax=0;resizeLast=0;collapsible=1;marginBottom=0;whiteSpace=wrap;html=1;fontFamily=Helvetica;fontSize=11;fontColor=default;labelBackgroundColor=default;" vertex="1" parent="1">
          <mxGeometry x="1180" y="22" width="320" height="78" as="geometry" />
        </mxCell>
        <mxCell id="SurAECB8qXhJmPuRRw0C-101" value="+ EditableBacklogItem()" style="text;strokeColor=none;fillColor=none;align=left;verticalAlign=top;spacingLeft=4;spacingRight=4;overflow=hidden;rotatable=0;points=[[0,0.5],[1,0.5]];portConstraint=eastwest;whiteSpace=wrap;html=1;fontFamily=Helvetica;fontSize=11;fontColor=default;labelBackgroundColor=default;" vertex="1" parent="SurAECB8qXhJmPuRRw0C-100">
          <mxGeometry y="26" width="320" height="26" as="geometry" />
        </mxCell>
        <mxCell id="SurAECB8qXhJmPuRRw0C-102" value="+ EditableBacklogItem(backlogItem: NonEditableBacklogItem)" style="text;strokeColor=none;fillColor=none;align=left;verticalAlign=top;spacingLeft=4;spacingRight=4;overflow=hidden;rotatable=0;points=[[0,0.5],[1,0.5]];portConstraint=eastwest;whiteSpace=wrap;html=1;fontFamily=Helvetica;fontSize=11;fontColor=default;labelBackgroundColor=default;" vertex="1" parent="SurAECB8qXhJmPuRRw0C-100">
          <mxGeometry y="52" width="320" height="26" as="geometry" />
        </mxCell>
        <mxCell id="SurAECB8qXhJmPuRRw0C-104" value="NonEditableBacklogItem" style="swimlane;fontStyle=0;childLayout=stackLayout;horizontal=1;startSize=26;fillColor=none;horizontalStack=0;resizeParent=1;resizeParentMax=0;resizeLast=0;collapsible=1;marginBottom=0;whiteSpace=wrap;html=1;fontFamily=Helvetica;fontSize=11;fontColor=default;labelBackgroundColor=default;" vertex="1" parent="1">
          <mxGeometry x="1180" y="112" width="320" height="78" as="geometry" />
        </mxCell>
        <mxCell id="SurAECB8qXhJmPuRRw0C-105" value="+ NonEditableBacklogItem()" style="text;strokeColor=none;fillColor=none;align=left;verticalAlign=top;spacingLeft=4;spacingRight=4;overflow=hidden;rotatable=0;points=[[0,0.5],[1,0.5]];portConstraint=eastwest;whiteSpace=wrap;html=1;fontFamily=Helvetica;fontSize=11;fontColor=default;labelBackgroundColor=default;" vertex="1" parent="SurAECB8qXhJmPuRRw0C-104">
          <mxGeometry y="26" width="320" height="26" as="geometry" />
        </mxCell>
        <mxCell id="SurAECB8qXhJmPuRRw0C-106" value="+ NonEditableBacklogItem(backlogItem: EditableBacklogItem)" style="text;strokeColor=none;fillColor=none;align=left;verticalAlign=top;spacingLeft=4;spacingRight=4;overflow=hidden;rotatable=0;points=[[0,0.5],[1,0.5]];portConstraint=eastwest;whiteSpace=wrap;html=1;fontFamily=Helvetica;fontSize=11;fontColor=default;labelBackgroundColor=default;" vertex="1" parent="SurAECB8qXhJmPuRRw0C-104">
          <mxGeometry y="52" width="320" height="26" as="geometry" />
        </mxCell>
        <mxCell id="SurAECB8qXhJmPuRRw0C-113" value="&lt;div&gt;&amp;lt;&amp;lt;interface&amp;gt;&amp;gt;&lt;/div&gt;IBacklogItemState" style="swimlane;fontStyle=0;childLayout=stackLayout;horizontal=1;startSize=30;fillColor=none;horizontalStack=0;resizeParent=1;resizeParentMax=0;resizeLast=0;collapsible=1;marginBottom=0;whiteSpace=wrap;html=1;fontFamily=Helvetica;fontSize=11;fontColor=default;labelBackgroundColor=default;" vertex="1" parent="1">
          <mxGeometry x="910" y="238" width="140" height="134" as="geometry" />
        </mxCell>
        <mxCell id="SurAECB8qXhJmPuRRw0C-114" value="+ Start(): void" style="text;strokeColor=none;fillColor=none;align=left;verticalAlign=top;spacingLeft=4;spacingRight=4;overflow=hidden;rotatable=0;points=[[0,0.5],[1,0.5]];portConstraint=eastwest;whiteSpace=wrap;html=1;fontFamily=Helvetica;fontSize=11;fontColor=default;labelBackgroundColor=default;" vertex="1" parent="SurAECB8qXhJmPuRRw0C-113">
          <mxGeometry y="30" width="140" height="26" as="geometry" />
        </mxCell>
        <mxCell id="SurAECB8qXhJmPuRRw0C-115" value="+ Complete(): void" style="text;strokeColor=none;fillColor=none;align=left;verticalAlign=top;spacingLeft=4;spacingRight=4;overflow=hidden;rotatable=0;points=[[0,0.5],[1,0.5]];portConstraint=eastwest;whiteSpace=wrap;html=1;fontFamily=Helvetica;fontSize=11;fontColor=default;labelBackgroundColor=default;" vertex="1" parent="SurAECB8qXhJmPuRRw0C-113">
          <mxGeometry y="56" width="140" height="26" as="geometry" />
        </mxCell>
        <mxCell id="SurAECB8qXhJmPuRRw0C-116" value="+ Deny(): void" style="text;strokeColor=none;fillColor=none;align=left;verticalAlign=top;spacingLeft=4;spacingRight=4;overflow=hidden;rotatable=0;points=[[0,0.5],[1,0.5]];portConstraint=eastwest;whiteSpace=wrap;html=1;fontFamily=Helvetica;fontSize=11;fontColor=default;labelBackgroundColor=default;" vertex="1" parent="SurAECB8qXhJmPuRRw0C-113">
          <mxGeometry y="82" width="140" height="26" as="geometry" />
        </mxCell>
        <mxCell id="SurAECB8qXhJmPuRRw0C-117" value="+ Approve(): void" style="text;strokeColor=none;fillColor=none;align=left;verticalAlign=top;spacingLeft=4;spacingRight=4;overflow=hidden;rotatable=0;points=[[0,0.5],[1,0.5]];portConstraint=eastwest;whiteSpace=wrap;html=1;fontFamily=Helvetica;fontSize=11;fontColor=default;labelBackgroundColor=default;" vertex="1" parent="SurAECB8qXhJmPuRRw0C-113">
          <mxGeometry y="108" width="140" height="26" as="geometry" />
        </mxCell>
        <mxCell id="SurAECB8qXhJmPuRRw0C-131" style="edgeStyle=orthogonalEdgeStyle;shape=connector;rounded=0;orthogonalLoop=1;jettySize=auto;html=1;strokeColor=default;strokeWidth=1;align=center;verticalAlign=middle;fontFamily=Helvetica;fontSize=11;fontColor=default;labelBackgroundColor=default;startSize=12;endArrow=block;endFill=0;endSize=12;dashed=1;" edge="1" parent="1" source="SurAECB8qXhJmPuRRw0C-120" target="SurAECB8qXhJmPuRRw0C-113">
          <mxGeometry relative="1" as="geometry">
            <Array as="points">
              <mxPoint x="1110" y="250" />
              <mxPoint x="1110" y="250" />
            </Array>
          </mxGeometry>
        </mxCell>
        <mxCell id="SurAECB8qXhJmPuRRw0C-120" value="TodoBacklogItemState" style="swimlane;fontStyle=0;childLayout=stackLayout;horizontal=1;startSize=26;fillColor=none;horizontalStack=0;resizeParent=1;resizeParentMax=0;resizeLast=0;collapsible=1;marginBottom=0;whiteSpace=wrap;html=1;fontFamily=Helvetica;fontSize=11;fontColor=default;labelBackgroundColor=default;" vertex="1" parent="1">
          <mxGeometry x="1120" y="238" width="340" height="52" as="geometry" />
        </mxCell>
        <mxCell id="SurAECB8qXhJmPuRRw0C-132" style="edgeStyle=orthogonalEdgeStyle;shape=connector;rounded=0;orthogonalLoop=1;jettySize=auto;html=1;strokeColor=default;strokeWidth=1;align=center;verticalAlign=middle;fontFamily=Helvetica;fontSize=11;fontColor=default;labelBackgroundColor=default;startSize=12;endArrow=block;endFill=0;endSize=12;dashed=1;" edge="1" parent="1" source="SurAECB8qXhJmPuRRw0C-122" target="SurAECB8qXhJmPuRRw0C-113">
          <mxGeometry relative="1" as="geometry">
            <Array as="points">
              <mxPoint x="1110" y="320" />
              <mxPoint x="1110" y="320" />
            </Array>
          </mxGeometry>
        </mxCell>
        <mxCell id="SurAECB8qXhJmPuRRw0C-122" value="DoingBacklogItemState" style="swimlane;fontStyle=0;childLayout=stackLayout;horizontal=1;startSize=26;fillColor=none;horizontalStack=0;resizeParent=1;resizeParentMax=0;resizeLast=0;collapsible=1;marginBottom=0;whiteSpace=wrap;html=1;fontFamily=Helvetica;fontSize=11;fontColor=default;labelBackgroundColor=default;" vertex="1" parent="1">
          <mxGeometry x="1120" y="312" width="340" height="78" as="geometry" />
        </mxCell>
        <mxCell id="SurAECB8qXhJmPuRRw0C-127" value="- notificationService: INotificationService" style="text;strokeColor=none;fillColor=none;align=left;verticalAlign=top;spacingLeft=4;spacingRight=4;overflow=hidden;rotatable=0;points=[[0,0.5],[1,0.5]];portConstraint=eastwest;whiteSpace=wrap;html=1;fontFamily=Helvetica;fontSize=11;fontColor=default;labelBackgroundColor=default;" vertex="1" parent="SurAECB8qXhJmPuRRw0C-122">
          <mxGeometry y="26" width="340" height="26" as="geometry" />
        </mxCell>
        <mxCell id="SurAECB8qXhJmPuRRw0C-128" value="+ DoingBacklogItemState(notificationService: INotifiactionService)" style="text;strokeColor=none;fillColor=none;align=left;verticalAlign=top;spacingLeft=4;spacingRight=4;overflow=hidden;rotatable=0;points=[[0,0.5],[1,0.5]];portConstraint=eastwest;whiteSpace=wrap;html=1;fontFamily=Helvetica;fontSize=11;fontColor=default;labelBackgroundColor=default;" vertex="1" parent="SurAECB8qXhJmPuRRw0C-122">
          <mxGeometry y="52" width="340" height="26" as="geometry" />
        </mxCell>
        <mxCell id="SurAECB8qXhJmPuRRw0C-133" style="edgeStyle=orthogonalEdgeStyle;shape=connector;rounded=0;orthogonalLoop=1;jettySize=auto;html=1;strokeColor=default;strokeWidth=1;align=center;verticalAlign=middle;fontFamily=Helvetica;fontSize=11;fontColor=default;labelBackgroundColor=default;startSize=12;endArrow=block;endFill=0;endSize=12;dashed=1;" edge="1" parent="1" source="SurAECB8qXhJmPuRRw0C-123" target="SurAECB8qXhJmPuRRw0C-113">
          <mxGeometry relative="1" as="geometry">
            <Array as="points">
              <mxPoint x="1090" y="434" />
              <mxPoint x="1090" y="350" />
            </Array>
          </mxGeometry>
        </mxCell>
        <mxCell id="SurAECB8qXhJmPuRRw0C-123" value="ReadyForTestingBacklogItemState" style="swimlane;fontStyle=0;childLayout=stackLayout;horizontal=1;startSize=26;fillColor=none;horizontalStack=0;resizeParent=1;resizeParentMax=0;resizeLast=0;collapsible=1;marginBottom=0;whiteSpace=wrap;html=1;fontFamily=Helvetica;fontSize=11;fontColor=default;labelBackgroundColor=default;" vertex="1" parent="1">
          <mxGeometry x="1120" y="408" width="340" height="52" as="geometry" />
        </mxCell>
        <mxCell id="SurAECB8qXhJmPuRRw0C-134" style="edgeStyle=orthogonalEdgeStyle;shape=connector;rounded=0;orthogonalLoop=1;jettySize=auto;html=1;strokeColor=default;strokeWidth=1;align=center;verticalAlign=middle;fontFamily=Helvetica;fontSize=11;fontColor=default;labelBackgroundColor=default;startSize=12;endArrow=block;endFill=0;endSize=12;dashed=1;" edge="1" parent="1" source="SurAECB8qXhJmPuRRw0C-124" target="SurAECB8qXhJmPuRRw0C-113">
          <mxGeometry relative="1" as="geometry">
            <Array as="points">
              <mxPoint x="1030" y="511" />
            </Array>
          </mxGeometry>
        </mxCell>
        <mxCell id="SurAECB8qXhJmPuRRw0C-124" value="TestingBacklogItemState" style="swimlane;fontStyle=0;childLayout=stackLayout;horizontal=1;startSize=26;fillColor=none;horizontalStack=0;resizeParent=1;resizeParentMax=0;resizeLast=0;collapsible=1;marginBottom=0;whiteSpace=wrap;html=1;fontFamily=Helvetica;fontSize=11;fontColor=default;labelBackgroundColor=default;" vertex="1" parent="1">
          <mxGeometry x="1120" y="472" width="340" height="78" as="geometry" />
        </mxCell>
        <mxCell id="SurAECB8qXhJmPuRRw0C-129" value="- notificationService: INotificationService" style="text;strokeColor=none;fillColor=none;align=left;verticalAlign=top;spacingLeft=4;spacingRight=4;overflow=hidden;rotatable=0;points=[[0,0.5],[1,0.5]];portConstraint=eastwest;whiteSpace=wrap;html=1;fontFamily=Helvetica;fontSize=11;fontColor=default;labelBackgroundColor=default;" vertex="1" parent="SurAECB8qXhJmPuRRw0C-124">
          <mxGeometry y="26" width="340" height="26" as="geometry" />
        </mxCell>
        <mxCell id="SurAECB8qXhJmPuRRw0C-130" value="+&amp;nbsp;&lt;span style=&quot;text-align: center;&quot;&gt;TestingBacklogItemState&lt;/span&gt;(notificationService: INotifiactionService)" style="text;strokeColor=none;fillColor=none;align=left;verticalAlign=top;spacingLeft=4;spacingRight=4;overflow=hidden;rotatable=0;points=[[0,0.5],[1,0.5]];portConstraint=eastwest;whiteSpace=wrap;html=1;fontFamily=Helvetica;fontSize=11;fontColor=default;labelBackgroundColor=default;" vertex="1" parent="SurAECB8qXhJmPuRRw0C-124">
          <mxGeometry y="52" width="340" height="26" as="geometry" />
        </mxCell>
        <mxCell id="SurAECB8qXhJmPuRRw0C-135" style="edgeStyle=orthogonalEdgeStyle;shape=connector;rounded=0;orthogonalLoop=1;jettySize=auto;html=1;strokeColor=default;strokeWidth=1;align=center;verticalAlign=middle;fontFamily=Helvetica;fontSize=11;fontColor=default;labelBackgroundColor=default;startSize=12;endArrow=block;endFill=0;endSize=12;dashed=1;" edge="1" parent="1" source="SurAECB8qXhJmPuRRw0C-125" target="SurAECB8qXhJmPuRRw0C-113">
          <mxGeometry relative="1" as="geometry">
            <Array as="points">
              <mxPoint x="1000" y="592" />
            </Array>
          </mxGeometry>
        </mxCell>
        <mxCell id="SurAECB8qXhJmPuRRw0C-125" value="TestedBacklogItemState" style="swimlane;fontStyle=0;childLayout=stackLayout;horizontal=1;startSize=26;fillColor=none;horizontalStack=0;resizeParent=1;resizeParentMax=0;resizeLast=0;collapsible=1;marginBottom=0;whiteSpace=wrap;html=1;fontFamily=Helvetica;fontSize=11;fontColor=default;labelBackgroundColor=default;" vertex="1" parent="1">
          <mxGeometry x="1120" y="566" width="340" height="52" as="geometry" />
        </mxCell>
        <mxCell id="SurAECB8qXhJmPuRRw0C-136" style="edgeStyle=orthogonalEdgeStyle;shape=connector;rounded=0;orthogonalLoop=1;jettySize=auto;html=1;strokeColor=default;strokeWidth=1;align=center;verticalAlign=middle;fontFamily=Helvetica;fontSize=11;fontColor=default;labelBackgroundColor=default;startSize=12;endArrow=block;endFill=0;endSize=12;dashed=1;" edge="1" parent="1" source="SurAECB8qXhJmPuRRw0C-126" target="SurAECB8qXhJmPuRRw0C-113">
          <mxGeometry relative="1" as="geometry">
            <Array as="points">
              <mxPoint x="970" y="666" />
            </Array>
          </mxGeometry>
        </mxCell>
        <mxCell id="SurAECB8qXhJmPuRRw0C-126" value="DoneBacklogItemState" style="swimlane;fontStyle=0;childLayout=stackLayout;horizontal=1;startSize=26;fillColor=none;horizontalStack=0;resizeParent=1;resizeParentMax=0;resizeLast=0;collapsible=1;marginBottom=0;whiteSpace=wrap;html=1;fontFamily=Helvetica;fontSize=11;fontColor=default;labelBackgroundColor=default;" vertex="1" parent="1">
          <mxGeometry x="1120" y="640" width="340" height="52" as="geometry" />
        </mxCell>
        <mxCell id="YTzpIWlsdkRU3uQJEAFt-14" style="edgeStyle=orthogonalEdgeStyle;shape=connector;rounded=0;orthogonalLoop=1;jettySize=auto;html=1;strokeColor=default;strokeWidth=1;align=center;verticalAlign=middle;fontFamily=Helvetica;fontSize=11;fontColor=default;labelBackgroundColor=default;startSize=12;endArrow=open;endFill=0;endSize=12;" edge="1" parent="1" source="YTzpIWlsdkRU3uQJEAFt-1" target="YTzpIWlsdkRU3uQJEAFt-5">
          <mxGeometry relative="1" as="geometry">
            <Array as="points">
              <mxPoint x="290" y="-138" />
              <mxPoint x="290" y="-138" />
            </Array>
          </mxGeometry>
        </mxCell>
        <mxCell id="YTzpIWlsdkRU3uQJEAFt-1" value="Forum" style="swimlane;fontStyle=0;childLayout=stackLayout;horizontal=1;startSize=26;fillColor=none;horizontalStack=0;resizeParent=1;resizeParentMax=0;resizeLast=0;collapsible=1;marginBottom=0;whiteSpace=wrap;html=1;fontFamily=Helvetica;fontSize=11;fontColor=default;labelBackgroundColor=default;" vertex="1" parent="1">
          <mxGeometry x="365" y="-164" width="140" height="52" as="geometry" />
        </mxCell>
        <mxCell id="YTzpIWlsdkRU3uQJEAFt-17" style="edgeStyle=orthogonalEdgeStyle;shape=connector;rounded=0;orthogonalLoop=1;jettySize=auto;html=1;strokeColor=default;strokeWidth=1;align=center;verticalAlign=middle;fontFamily=Helvetica;fontSize=11;fontColor=default;labelBackgroundColor=default;startSize=12;endArrow=open;endFill=0;endSize=12;" edge="1" parent="1" source="YTzpIWlsdkRU3uQJEAFt-5" target="YTzpIWlsdkRU3uQJEAFt-9">
          <mxGeometry relative="1" as="geometry" />
        </mxCell>
        <mxCell id="YTzpIWlsdkRU3uQJEAFt-21" style="edgeStyle=orthogonalEdgeStyle;shape=connector;rounded=0;orthogonalLoop=1;jettySize=auto;html=1;strokeColor=default;strokeWidth=1;align=center;verticalAlign=middle;fontFamily=Helvetica;fontSize=11;fontColor=default;labelBackgroundColor=default;startSize=12;endArrow=open;endFill=0;endSize=12;" edge="1" parent="1" source="YTzpIWlsdkRU3uQJEAFt-5" target="SurAECB8qXhJmPuRRw0C-67">
          <mxGeometry relative="1" as="geometry">
            <Array as="points">
              <mxPoint y="-138" />
              <mxPoint y="115" />
            </Array>
          </mxGeometry>
        </mxCell>
        <mxCell id="YTzpIWlsdkRU3uQJEAFt-25" style="edgeStyle=orthogonalEdgeStyle;shape=connector;rounded=0;orthogonalLoop=1;jettySize=auto;html=1;strokeColor=default;strokeWidth=1;align=center;verticalAlign=middle;fontFamily=Helvetica;fontSize=11;fontColor=default;labelBackgroundColor=default;startSize=12;endArrow=open;endFill=0;endSize=12;" edge="1" parent="1" source="YTzpIWlsdkRU3uQJEAFt-5" target="SurAECB8qXhJmPuRRw0C-91">
          <mxGeometry relative="1" as="geometry">
            <Array as="points">
              <mxPoint x="220" y="-220" />
              <mxPoint x="1060" y="-220" />
            </Array>
          </mxGeometry>
        </mxCell>
        <mxCell id="YTzpIWlsdkRU3uQJEAFt-5" value="ForumTread" style="swimlane;fontStyle=0;childLayout=stackLayout;horizontal=1;startSize=26;fillColor=none;horizontalStack=0;resizeParent=1;resizeParentMax=0;resizeLast=0;collapsible=1;marginBottom=0;whiteSpace=wrap;html=1;fontFamily=Helvetica;fontSize=11;fontColor=default;labelBackgroundColor=default;" vertex="1" parent="1">
          <mxGeometry x="-20" y="-190" width="290" height="78" as="geometry" />
        </mxCell>
        <mxCell id="YTzpIWlsdkRU3uQJEAFt-22" value="- notificationService: INotificationService" style="text;strokeColor=none;fillColor=none;align=left;verticalAlign=top;spacingLeft=4;spacingRight=4;overflow=hidden;rotatable=0;points=[[0,0.5],[1,0.5]];portConstraint=eastwest;whiteSpace=wrap;html=1;fontFamily=Helvetica;fontSize=11;fontColor=default;labelBackgroundColor=default;" vertex="1" parent="YTzpIWlsdkRU3uQJEAFt-5">
          <mxGeometry y="26" width="290" height="26" as="geometry" />
        </mxCell>
        <mxCell id="YTzpIWlsdkRU3uQJEAFt-23" value="+&amp;nbsp;&lt;span style=&quot;text-align: center;&quot;&gt;ForumTread&lt;/span&gt;(notificationService: INotifiactionService)" style="text;strokeColor=none;fillColor=none;align=left;verticalAlign=top;spacingLeft=4;spacingRight=4;overflow=hidden;rotatable=0;points=[[0,0.5],[1,0.5]];portConstraint=eastwest;whiteSpace=wrap;html=1;fontFamily=Helvetica;fontSize=11;fontColor=default;labelBackgroundColor=default;" vertex="1" parent="YTzpIWlsdkRU3uQJEAFt-5">
          <mxGeometry y="52" width="290" height="26" as="geometry" />
        </mxCell>
        <mxCell id="YTzpIWlsdkRU3uQJEAFt-9" value="ForumTreadItem" style="swimlane;fontStyle=0;childLayout=stackLayout;horizontal=1;startSize=26;fillColor=none;horizontalStack=0;resizeParent=1;resizeParentMax=0;resizeLast=0;collapsible=1;marginBottom=0;whiteSpace=wrap;html=1;fontFamily=Helvetica;fontSize=11;fontColor=default;labelBackgroundColor=default;" vertex="1" parent="1">
          <mxGeometry x="55" y="-330" width="140" height="52" as="geometry" />
        </mxCell>
        <mxCell id="YTzpIWlsdkRU3uQJEAFt-15" value="0 ... *" style="text;html=1;align=center;verticalAlign=middle;resizable=0;points=[];autosize=1;strokeColor=none;fillColor=none;fontFamily=Helvetica;fontSize=11;fontColor=default;labelBackgroundColor=default;" vertex="1" parent="1">
          <mxGeometry x="260" y="-136" width="50" height="30" as="geometry" />
        </mxCell>
        <mxCell id="YTzpIWlsdkRU3uQJEAFt-16" value="- treads" style="text;html=1;align=center;verticalAlign=middle;resizable=0;points=[];autosize=1;strokeColor=none;fillColor=none;fontFamily=Helvetica;fontSize=11;fontColor=default;labelBackgroundColor=default;" vertex="1" parent="1">
          <mxGeometry x="260" y="-166" width="60" height="30" as="geometry" />
        </mxCell>
        <mxCell id="YTzpIWlsdkRU3uQJEAFt-18" value="1 ... *" style="text;html=1;align=center;verticalAlign=middle;resizable=0;points=[];autosize=1;strokeColor=none;fillColor=none;fontFamily=Helvetica;fontSize=11;fontColor=default;labelBackgroundColor=default;" vertex="1" parent="1">
          <mxGeometry x="70" y="-266" width="50" height="30" as="geometry" />
        </mxCell>
        <mxCell id="YTzpIWlsdkRU3uQJEAFt-19" value="- items" style="text;html=1;align=center;verticalAlign=middle;resizable=0;points=[];autosize=1;strokeColor=none;fillColor=none;fontFamily=Helvetica;fontSize=11;fontColor=default;labelBackgroundColor=default;" vertex="1" parent="1">
          <mxGeometry x="120" y="-266" width="60" height="30" as="geometry" />
        </mxCell>
        <mxCell id="YTzpIWlsdkRU3uQJEAFt-20" style="edgeStyle=orthogonalEdgeStyle;shape=connector;rounded=0;orthogonalLoop=1;jettySize=auto;html=1;entryX=0.75;entryY=0;entryDx=0;entryDy=0;strokeColor=default;strokeWidth=1;align=center;verticalAlign=middle;fontFamily=Helvetica;fontSize=11;fontColor=default;labelBackgroundColor=default;startSize=12;endArrow=open;endFill=0;endSize=12;exitX=0.25;exitY=0;exitDx=0;exitDy=0;" edge="1" parent="1" source="YTzpIWlsdkRU3uQJEAFt-9" target="YTzpIWlsdkRU3uQJEAFt-9">
          <mxGeometry relative="1" as="geometry">
            <Array as="points">
              <mxPoint x="90" y="-370" />
              <mxPoint x="160" y="-370" />
            </Array>
          </mxGeometry>
        </mxCell>
        <mxCell id="YTzpIWlsdkRU3uQJEAFt-28" style="edgeStyle=orthogonalEdgeStyle;shape=connector;rounded=0;orthogonalLoop=1;jettySize=auto;html=1;strokeColor=default;strokeWidth=1;align=center;verticalAlign=middle;fontFamily=Helvetica;fontSize=11;fontColor=default;labelBackgroundColor=default;startSize=12;endArrow=none;endFill=0;endSize=12;startFill=0;startArrow=none;dashed=1;" edge="1" parent="1" source="YTzpIWlsdkRU3uQJEAFt-27" target="YTzpIWlsdkRU3uQJEAFt-24">
          <mxGeometry relative="1" as="geometry" />
        </mxCell>
        <mxCell id="YTzpIWlsdkRU3uQJEAFt-27" value="Notifications" style="shape=folder;fontStyle=1;spacingTop=10;tabWidth=40;tabHeight=14;tabPosition=left;html=1;whiteSpace=wrap;fontFamily=Helvetica;fontSize=11;fontColor=default;labelBackgroundColor=default;" vertex="1" parent="1">
          <mxGeometry x="-390" y="155" width="100" height="50" as="geometry" />
        </mxCell>
        <mxCell id="YTzpIWlsdkRU3uQJEAFt-30" style="edgeStyle=orthogonalEdgeStyle;shape=connector;rounded=0;orthogonalLoop=1;jettySize=auto;html=1;strokeColor=default;strokeWidth=1;align=center;verticalAlign=middle;fontFamily=Helvetica;fontSize=11;fontColor=default;labelBackgroundColor=default;startSize=12;endArrow=none;endFill=0;endSize=12;startFill=0;startArrow=open;dashed=1;" edge="1" parent="1" source="YTzpIWlsdkRU3uQJEAFt-29" target="YTzpIWlsdkRU3uQJEAFt-24">
          <mxGeometry relative="1" as="geometry">
            <Array as="points">
              <mxPoint x="-220" y="265" />
              <mxPoint x="-220" y="265" />
            </Array>
          </mxGeometry>
        </mxCell>
        <mxCell id="YTzpIWlsdkRU3uQJEAFt-29" value="DevOps" style="shape=folder;fontStyle=1;spacingTop=10;tabWidth=40;tabHeight=14;tabPosition=left;html=1;whiteSpace=wrap;fontFamily=Helvetica;fontSize=11;fontColor=default;labelBackgroundColor=default;" vertex="1" parent="1">
          <mxGeometry x="-390" y="240" width="100" height="50" as="geometry" />
        </mxCell>
        <mxCell id="YTzpIWlsdkRU3uQJEAFt-32" style="edgeStyle=orthogonalEdgeStyle;shape=connector;rounded=0;orthogonalLoop=1;jettySize=auto;html=1;strokeColor=default;strokeWidth=1;align=center;verticalAlign=middle;fontFamily=Helvetica;fontSize=11;fontColor=default;labelBackgroundColor=default;startSize=12;endArrow=none;endFill=0;endSize=12;startFill=0;startArrow=open;dashed=1;" edge="1" parent="1" source="YTzpIWlsdkRU3uQJEAFt-31" target="YTzpIWlsdkRU3uQJEAFt-24">
          <mxGeometry relative="1" as="geometry">
            <Array as="points">
              <mxPoint x="-210" y="345" />
              <mxPoint x="-210" y="345" />
            </Array>
          </mxGeometry>
        </mxCell>
        <mxCell id="YTzpIWlsdkRU3uQJEAFt-31" value="VersionControl" style="shape=folder;fontStyle=1;spacingTop=10;tabWidth=40;tabHeight=14;tabPosition=left;html=1;whiteSpace=wrap;fontFamily=Helvetica;fontSize=11;fontColor=default;labelBackgroundColor=default;" vertex="1" parent="1">
          <mxGeometry x="-390" y="320" width="100" height="50" as="geometry" />
        </mxCell>
      </root>
    </mxGraphModel>
  </diagram>
</mxfile>
